<svg xmlns="http://www.w3.org/2000/svg" xmlns:xlink="http://www.w3.org/1999/xlink" xmlns:lucid="lucid" width="1433.11" height="1107.41"><g transform="translate(0 0)" lucid:page-tab-id="0_0"><path d="M0 0h1433.1v1107.4H0z" fill="#fff"/><path d="M46.72 33.1h848v48h-848z" fill="none"/><use xlink:href="#a" transform="matrix(1,0,0,1,46.723270440251724,33.11320754716982) translate(0 31.11111111111111)"/><use xlink:href="#b" transform="matrix(1,0,0,1,46.723270440251724,33.11320754716982) translate(163.75308641975312 31.11111111111111)"/><use xlink:href="#c" transform="matrix(1,0,0,1,46.723270440251724,33.11320754716982) translate(249.87654320987656 31.11111111111111)"/><use xlink:href="#d" transform="matrix(1,0,0,1,46.723270440251724,33.11320754716982) translate(358.320987654321 31.11111111111111)"/><path d="M26.06 81.1h1369.6" stroke="#999" stroke-width="2" fill="none"/><path d="M1140 81.06h200V490.9h-200z" stroke="#000" stroke-width="2" fill-opacity="0"/><path d="M678 26.06h688v48H678z" fill="none"/><use xlink:href="#e" transform="matrix(1,0,0,1,678,26.05660377358491) translate(354.85185185185514 28.4444444444444)"/><use xlink:href="#f" transform="matrix(1,0,0,1,678,26.05660377358491) translate(418.9876543209903 28.4444444444444)"/><use xlink:href="#g" transform="matrix(1,0,0,1,678,26.05660377358491) translate(523.0000000000016 28.4444444444444)"/><use xlink:href="#h" transform="matrix(1,0,0,1,678,26.05660377358491) translate(547.2592592592606 28.4444444444444)"/><use xlink:href="#i" transform="matrix(1,0,0,1,678,26.05660377358491) translate(601.580246913581 28.4444444444444)"/><use xlink:href="#j" transform="matrix(1,0,0,1,678,26.05660377358491) translate(638.6172839506178 28.4444444444444)"/><path d="M194.06 113.1c17.67 0 32 17.92 32 40 0 22.1-14.33 40-32 40h-96c-17.68 0-32-17.9-32-40 0-22.08 14.32-40 32-40z" stroke="#000" stroke-width="2" fill="#fff"/><use xlink:href="#k" transform="matrix(1,0,0,1,71.05660377358492,118.1132075471698) translate(19.525 38.6)"/><use xlink:href="#l" transform="matrix(1,0,0,1,71.05660377358492,118.1132075471698) translate(88.475 38.6)"/><path d="M66.06 233.1h160v120h-160z" stroke="#000" stroke-width="2" fill="#fff"/><use xlink:href="#m" transform="matrix(1,0,0,1,71.05660377358492,238.11320754716985) translate(36.55 58.6)"/><use xlink:href="#n" transform="matrix(1,0,0,1,71.05660377358492,238.11320754716985) translate(72.5 58.6)"/><path d="M566.06 213.1h160v120h-160z" stroke="#000" stroke-width="2" fill="#fff"/><use xlink:href="#o" transform="matrix(1,0,0,1,571.0566037735849,218.11320754716974) translate(1.5999999999999943 58.6)"/><use xlink:href="#p" transform="matrix(1,0,0,1,571.0566037735849,218.11320754716974) translate(77.5 58.6)"/><path d="M727.06 273.1h19.1" stroke="#000" stroke-width="2" fill="none"/><path d="M727.06 274.1h-1v-2h1zM761.15 273.1l-14.26 4.65v-9.27z"/><path d="M764.4 273.1l-18.5 6.02V267.1zm-16.5 3.27l10.02-3.26-10.03-3.25z"/><path d="M846.06 213.1l80 60-80 60-80-60z" stroke="#000" stroke-width="2" fill="#c1e4f7"/><use xlink:href="#q" transform="matrix(1,0,0,1,771.0566037735848,218.11320754716974) translate(37.05 58.6)"/><path d="M861.4 343.75h-14.34v33.13h-2v-35.13h16.33zm44.28 0h-16.34v-2h14.34V290.4h2zM905.68 290.4h-2v-.5l2-1.5zM846.06 391.88l-4.64-14.27h9.27z"/><path d="M846.06 395.1l-6.02-18.5h12.03zm-3.26-16.5l3.26 10.04 3.26-10.03z"/><use xlink:href="#r" transform="matrix(1,0,0,1,861.394937150043,331.9532076045608) translate(0 14.4)"/><path d="M766.06 403.03l160-19.92v120h-160z" stroke="#000" stroke-width="2" fill="#fff"/><use xlink:href="#s" transform="matrix(1,0,0,1,771.0566037735848,408.11320754716985) translate(3.625 27)"/><use xlink:href="#t" transform="matrix(1,0,0,1,771.0566037735848,408.11320754716985) translate(44.625 27)"/><use xlink:href="#u" transform="matrix(1,0,0,1,771.0566037735848,408.11320754716985) translate(30.599999999999994 48.6)"/><use xlink:href="#v" transform="matrix(1,0,0,1,771.0566037735848,408.11320754716985) translate(53.55 48.6)"/><use xlink:href="#w" transform="matrix(1,0,0,1,771.0566037735848,408.11320754716985) translate(12.099999999999994 70.2)"/><use xlink:href="#x" transform="matrix(1,0,0,1,771.0566037735848,408.11320754716985) translate(96.05 70.2)"/><path d="M847.06 340.4v36.48h-2v-34.5H831.4v-2zm-48.6 0v2H782.8v-54.73h2v52.72z"/><path d="M784.8 287.17v.5h-2v-2zM846.06 391.88l-4.64-14.27h9.27z"/><path d="M846.06 395.1l-6.02-18.5h12.03zm-3.26-16.5l3.26 10.04 3.26-10.03z"/><use xlink:href="#y" transform="matrix(1,0,0,1,798.4549370571582,330.5932076051355) translate(0 14.4)"/><path d="M846.06 504.1v20.4h-31v2.13" stroke="#000" stroke-width="2" fill="none"/><path d="M847.06 504.1h-2v-1h2zM815.06 541.63l-4.64-14.27h9.27z"/><path d="M815.06 544.86l-6.02-18.5h12.03zm-3.26-16.5l3.26 10.03 3.26-10.04z"/><path d="M815.06 546.1l80 60-80 60-80-60z" stroke="#000" stroke-width="2" fill="#c1e4f7"/><use xlink:href="#z" transform="matrix(1,0,0,1,740.0566037735849,551.1132075471698) translate(42.05 58.6)"/><path d="M733.4 605.1v2h-38.7v-2zm-86.34-9.8h-2V352.36h2z"/><path d="M735.06 606.1l1.33 1h-3v-2h3zM650.7 351.62h-9.28l4.64-14.27z"/><path d="M652.07 352.62h-12.03l6.02-18.5zm-9.27-2h6.52l-3.26-10.03z"/><use xlink:href="#A" transform="matrix(1,0,0,1,638.8016947435735,595.3132075471699) translate(0 14.4)"/><path d="M1108 552.55c17.67 0 32 22.16 32 49.5 0 27.35-14.33 49.5-32 49.5h-96c-17.67 0-32-22.15-32-49.5 0-27.34 14.33-49.5 32-49.5z" stroke="#000" stroke-width="2" fill="#fff"/><use xlink:href="#B" transform="matrix(1,0,0,1,985,557.5493710691824) translate(28.574999999999996 16.19999999999999)"/><use xlink:href="#C" transform="matrix(1,0,0,1,985,557.5493710691824) translate(19.124999999999993 37.79999999999999)"/><use xlink:href="#D" transform="matrix(1,0,0,1,985,557.5493710691824) translate(125.875 37.79999999999999)"/><use xlink:href="#E" transform="matrix(1,0,0,1,985,557.5493710691824) translate(21.074999999999996 59.39999999999999)"/><use xlink:href="#F" transform="matrix(1,0,0,1,985,557.5493710691824) translate(77.025 59.39999999999999)"/><use xlink:href="#G" transform="matrix(1,0,0,1,985,557.5493710691824) translate(114.975 59.39999999999999)"/><use xlink:href="#H" transform="matrix(1,0,0,1,985,557.5493710691824) translate(52.574999999999996 81)"/><path d="M227.06 293.1h28.25v-5h10.03" stroke="#000" stroke-width="2" fill="none"/><path d="M227.06 294.1h-1v-2h1zM280.33 288.1l-14.27 4.65v-9.27z"/><path d="M283.57 288.1l-18.5 6.02V282.1zm-16.5 3.27l10.02-3.26-10.04-3.25z"/><path d="M390.06 193.1l105 95-105 95-105-95z" stroke="#000" stroke-width="2" fill="#d1bcd2"/><use xlink:href="#I" transform="matrix(1,0,0,1,290.0566037735849,198.11320754716985) translate(26.049999999999997 72)"/><use xlink:href="#J" transform="matrix(1,0,0,1,290.0566037735849,198.11320754716985) translate(63 72)"/><use xlink:href="#K" transform="matrix(1,0,0,1,290.0566037735849,198.11320754716985) translate(102.95 72)"/><use xlink:href="#L" transform="matrix(1,0,0,1,290.0566037735849,198.11320754716985) translate(153.95 72)"/><use xlink:href="#M" transform="matrix(1,0,0,1,290.0566037735849,198.11320754716985) translate(35.599999999999994 93.60000000000001)"/><use xlink:href="#N" transform="matrix(1,0,0,1,290.0566037735849,198.11320754716985) translate(100.5 93.60000000000001)"/><use xlink:href="#O" transform="matrix(1,0,0,1,290.0566037735849,198.11320754716985) translate(65.55 115.20000000000002)"/><path d="M391.06 493.88h-2v-34.8h2zm0-56.4h-2v-53.02h2zM391.06 384.46h-2v-2.25l1 .9 1-.9zM390.06 508.88l-4.64-14.27h9.27z"/><path d="M390.06 512.1l-6.02-18.5h12.03zm-3.26-16.5l3.26 10.04 3.26-10.03z"/><use xlink:href="#P" transform="matrix(1,0,0,1,375.3816037735849,437.48748404716986) translate(0 14.4)"/><path d="M310.06 513.1h160v120h-160z" stroke="#000" stroke-width="2" fill="#fff"/><use xlink:href="#o" transform="matrix(1,0,0,1,315.0566037735849,518.1132075471698) translate(1.5999999999999943 26.19999999999999)"/><use xlink:href="#Q" transform="matrix(1,0,0,1,315.0566037735849,518.1132075471698) translate(77.5 26.19999999999999)"/><use xlink:href="#u" transform="matrix(1,0,0,1,315.0566037735849,518.1132075471698) translate(17.849999999999994 47.79999999999999)"/><use xlink:href="#R" transform="matrix(1,0,0,1,315.0566037735849,518.1132075471698) translate(40.8 47.79999999999999)"/><use xlink:href="#S" transform="matrix(1,0,0,1,315.0566037735849,518.1132075471698) translate(93.15 47.79999999999999)"/><use xlink:href="#T" transform="matrix(1,0,0,1,315.0566037735849,518.1132075471698) translate(11.049999999999997 69.39999999999999)"/><use xlink:href="#U" transform="matrix(1,0,0,1,315.0566037735849,518.1132075471698) translate(56 69.39999999999999)"/><use xlink:href="#V" transform="matrix(1,0,0,1,315.0566037735849,518.1132075471698) translate(108.95 69.39999999999999)"/><use xlink:href="#W" transform="matrix(1,0,0,1,315.0566037735849,518.1132075471698) translate(8.574999999999989 91)"/><use xlink:href="#X" transform="matrix(1,0,0,1,315.0566037735849,518.1132075471698) translate(54.52499999999999 91)"/><use xlink:href="#Y" transform="matrix(1,0,0,1,315.0566037735849,518.1132075471698) translate(106.425 91)"/><path d="M519.33 289.1h-22.78v-2h22.78zm27.5-15h-4.55v-2h4.54zM496.55 289.1h-2.6l1.1-1-1.1-1h2.6zM561.82 273.1l-14.27 4.65v-9.27z"/><path d="M565.06 273.1l-18.5 6.02V267.1zm-16.5 3.27l10.02-3.26-10.03-3.25z"/><use xlink:href="#Z" transform="matrix(1,0,0,1,519.3268567735848,269.8132075471697) translate(0 14.4)"/><path d="M146.06 194.1v19.78" stroke="#000" stroke-width="2" fill="none"/><path d="M147.06 194.1h-2v-1h2zM146.06 228.88l-4.64-14.27h9.27z"/><path d="M146.06 232.1l-6.02-18.5h12.03zm-3.26-16.5l3.26 10.04 3.26-10.03zM968.72 444.1h-41.66v-2h39.66v-72.85h2zm0-96.45h-2V274.1h-20.76v-2h22.76zM927.06 444.1h-1v-2h1zM945.23 277.75l-14.27-4.64 14.27-4.62z"/><path d="M946.23 279.12l-18.5-6 18.5-6.02zm-12.03-6l10.03 3.25v-6.52z"/><use xlink:href="#aa" transform="matrix(1,0,0,1,897.7732707735847,347.64654104716976) translate(0 14.4)"/><use xlink:href="#ab" transform="matrix(1,0,0,1,897.7732707735847,347.64654104716976) translate(60.900000000000006 14.4)"/><use xlink:href="#ac" transform="matrix(1,0,0,1,897.7732707735847,347.64654104716976) translate(70.9 14.4)"/><use xlink:href="#ad" transform="matrix(1,0,0,1,897.7732707735847,347.64654104716976) translate(99.9 14.4)"/><path d="M923.2 607.1H896.7v-2h26.47zm37.56-4.04h-8.22v-2h8.22z"/><path d="M896.72 607.1h-3l1.34-1-1.34-1h3zM975.76 602.06l-14.26 4.63v-9.28z"/><path d="M979 602.06l-18.5 6v-12.02zm-16.5 3.26l10.03-3.26-10.03-3.26z"/><use xlink:href="#P" transform="matrix(1,0,0,1,923.1864416800306,593.2849056603775) translate(0 14.4)"/><path d="M309.06 573.1h-163V372.36" stroke="#000" stroke-width="2" fill="none"/><path d="M310.06 574.1h-1v-2h1zM150.7 371.62h-9.28l4.64-14.27z"/><path d="M152.07 372.62h-12.03l6.02-18.5zm-9.27-2h6.52l-3.26-10.03z"/><path d="M574.06 419.78c17.67 0 32 5.97 32 13.33 0 7.38-14.33 13.35-32 13.35h-96c-17.68 0-32-5.97-32-13.34 0-7.35 14.32-13.32 32-13.32z" stroke="#000" stroke-width="2" fill="#c1e4f7"/><use xlink:href="#ae" transform="matrix(1,0,0,1,451.0566037735849,424.77987421383654) translate(30.574999999999996 14.4)"/><use xlink:href="#af" transform="matrix(1,0,0,1,451.0566037735849,424.77987421383654) translate(83.525 14.4)"/><path d="M592.72 334.1v42.35h-34.66v24.1" stroke="#000" stroke-width="2" fill="none"/><path d="M593.72 334.1h-2v-1h2zM558.06 415.54l-4.64-14.26h9.27z"/><path d="M558.06 418.78l-6.02-18.5h12.03zm-3.26-16.5l3.26 10.03 3.26-10.02z"/><path d="M471.06 521.1h55V465.7" stroke="#000" stroke-width="2" fill="none"/><path d="M471.06 522.1h-1v-2h1zM530.7 464.95h-9.28l4.64-14.27z"/><path d="M532.07 465.95h-12.03l6.02-18.5zm-9.27-2h6.52l-3.26-10.03z"/><path d="M125.06 847.06h160V953.1c-26.72-17.7-43.36-17.7-53.44-17.7-16 0-37.28 17.7-53.28 17.7-9.92 0-26.72 0-53.28-17.7z" stroke="#000" stroke-width="2" fill="#d1bcd2"/><use xlink:href="#ag" transform="matrix(1,0,0,1,130.05660377358492,852.0566037735848) translate(8.625 32.3)"/><use xlink:href="#ah" transform="matrix(1,0,0,1,130.05660377358492,852.0566037735848) translate(76.525 32.3)"/><use xlink:href="#ai" transform="matrix(1,0,0,1,130.05660377358492,852.0566037735848) translate(14.599999999999994 53.9)"/><use xlink:href="#aj" transform="matrix(1,0,0,1,130.05660377358492,852.0566037735848) translate(34.599999999999994 53.9)"/><use xlink:href="#ak" transform="matrix(1,0,0,1,130.05660377358492,852.0566037735848) translate(75.5 53.9)"/><use xlink:href="#al" transform="matrix(1,0,0,1,130.05660377358492,852.0566037735848) translate(99.5 53.9)"/><path d="M323.06 847.06h160V953.1c-26.72-17.7-43.36-17.7-53.44-17.7-16 0-37.28 17.7-53.28 17.7-9.92 0-26.72 0-53.28-17.7z" stroke="#000" stroke-width="2" fill="#c1e4f7"/><use xlink:href="#am" transform="matrix(1,0,0,1,328.056603773585,852.0566037735848) translate(39.575 32.3)"/><use xlink:href="#an" transform="matrix(1,0,0,1,328.056603773585,852.0566037735848) translate(6.074999999999989 53.9)"/><use xlink:href="#ao" transform="matrix(1,0,0,1,328.056603773585,852.0566037735848) translate(90.02499999999999 53.9)"/><path d="M390.06 634.1v19h-18.78v.78" stroke="#000" stroke-width="2" fill="none"/><path d="M391.06 634.1h-2v-1h2zM371.28 668.88l-4.64-14.27h9.27z"/><path d="M371.28 672.1l-6-18.5h12zm-3.26-16.5l3.26 10.04 3.26-10.03z"/><path d="M260 673.1h222.56v120H260z" stroke="#000" stroke-width="2" fill="#d1bcd2"/><path d="M282.26 673.1v120m178.04-120v120" stroke="#000" stroke-width="2" fill="none"/><use xlink:href="#ap" transform="matrix(1,0,0,1,292.8195754716981,678.1132075471698) translate(19 26.19999999999999)"/><use xlink:href="#aq" transform="matrix(1,0,0,1,292.8195754716981,678.1132075471698) translate(44 26.19999999999999)"/><use xlink:href="#ar" transform="matrix(1,0,0,1,292.8195754716981,678.1132075471698) translate(89 26.19999999999999)"/><use xlink:href="#as" transform="matrix(1,0,0,1,292.8195754716981,678.1132075471698) translate(123 26.19999999999999)"/><use xlink:href="#at" transform="matrix(1,0,0,1,292.8195754716981,678.1132075471698) translate(11.625 47.79999999999999)"/><use xlink:href="#au" transform="matrix(1,0,0,1,292.8195754716981,678.1132075471698) translate(76.47500000000001 47.79999999999999)"/><use xlink:href="#av" transform="matrix(1,0,0,1,292.8195754716981,678.1132075471698) translate(5.025000000000006 69.39999999999999)"/><use xlink:href="#aw" transform="matrix(1,0,0,1,292.8195754716981,678.1132075471698) translate(83.025 69.39999999999999)"/><use xlink:href="#ax" transform="matrix(1,0,0,1,292.8195754716981,678.1132075471698) translate(139.975 69.39999999999999)"/><use xlink:href="#ay" transform="matrix(1,0,0,1,292.8195754716981,678.1132075471698) translate(7.574999999999989 91)"/><use xlink:href="#az" transform="matrix(1,0,0,1,292.8195754716981,678.1132075471698) translate(68.475 91)"/><path d="M330.5 794.1v25.98h-72.46v7.74" stroke="#000" stroke-width="2" fill="none"/><path d="M331.5 794.1h-2v-1h2zM258.04 842.82l-4.64-14.27h9.27z"/><path d="M258.04 846.06l-6-18.5h12zm-3.26-16.5l3.26 10.02 3.26-10.03z"/><path d="M410.42 794.1v25.98h-45.5v7.74" stroke="#000" stroke-width="2" fill="none"/><path d="M411.42 794.1h-2v-1h2zM364.92 842.82l-4.64-14.27h9.27z"/><path d="M364.92 846.06l-6-18.5h12zm-3.26-16.5l3.26 10.02 3.26-10.03z"/><path d="M1141 602.06h20.53V602h2.3" stroke="#000" stroke-width="2" fill="none"/><path d="M1141 603.06h-1.05l.05-1-.03-1h1.03zM1178.82 602l-14.27 4.65v-9.27z"/><path d="M1182.06 602l-18.5 6.02V596zm-16.5 3.27l10.02-3.26-10.03-3.25z"/><path d="M1183.06 510.9h183v182.2h-183z" stroke="#000" stroke-width="2" fill="#d1bcd2"/><path d="M1201.36 510.9v182.2m146.4-182.2v182.2" stroke="#000" stroke-width="2" fill="none"/><g><use xlink:href="#aA" transform="matrix(1,0,0,1,1210.9316037735848,515.9132075471698) translate(8.599999999999994 25.300000000000004)"/><use xlink:href="#aB" transform="matrix(1,0,0,1,1210.9316037735848,515.9132075471698) translate(106.45 25.300000000000004)"/><use xlink:href="#aC" transform="matrix(1,0,0,1,1210.9316037735848,515.9132075471698) translate(14.075000000000003 46.900000000000006)"/><use xlink:href="#aD" transform="matrix(1,0,0,1,1210.9316037735848,515.9132075471698) translate(98.925 46.900000000000006)"/><use xlink:href="#aE" transform="matrix(1,0,0,1,1210.9316037735848,515.9132075471698) translate(12.624999999999993 68.50000000000001)"/><use xlink:href="#aF" transform="matrix(1,0,0,1,1210.9316037735848,515.9132075471698) translate(47.574999999999996 68.50000000000001)"/><use xlink:href="#aG" transform="matrix(1,0,0,1,1210.9316037735848,515.9132075471698) translate(97.42500000000001 68.50000000000001)"/><use xlink:href="#aH" transform="matrix(1,0,0,1,1210.9316037735848,515.9132075471698) translate(13.124999999999993 90.10000000000002)"/><use xlink:href="#F" transform="matrix(1,0,0,1,1210.9316037735848,515.9132075471698) translate(16.525 111.70000000000002)"/><use xlink:href="#aI" transform="matrix(1,0,0,1,1210.9316037735848,515.9132075471698) translate(54.475 111.70000000000002)"/><use xlink:href="#aD" transform="matrix(1,0,0,1,1210.9316037735848,515.9132075471698) translate(96.475 111.70000000000002)"/><use xlink:href="#aF" transform="matrix(1,0,0,1,1210.9316037735848,515.9132075471698) translate(0.6749999999999972 133.3)"/><use xlink:href="#aJ" transform="matrix(1,0,0,1,1210.9316037735848,515.9132075471698) translate(50.525000000000006 133.3)"/><use xlink:href="#aK" transform="matrix(1,0,0,1,1210.9316037735848,515.9132075471698) translate(91.425 133.3)"/><use xlink:href="#aL" transform="matrix(1,0,0,1,1210.9316037735848,515.9132075471698) translate(19.074999999999996 154.9)"/></g><path d="M1367.06 602h40v221.1h-101.53" stroke="#000" stroke-width="2" fill="none"/><path d="M1367.06 603h-1v-2h1zM1304.8 827.75l-14.27-4.64 14.26-4.62z"/><path d="M1305.8 829.12l-18.5-6 18.5-6.02zm-12.03-6l10.02 3.25v-6.52z"/><path d="M1206.06 713.1l80 110-80 110-80-110z" stroke="#000" stroke-width="2" fill="#c1e4f7"/><g><use xlink:href="#aM" transform="matrix(1,0,0,1,1131.0566037735848,718.1132075471698) translate(29.625 76.19999999999999)"/><use xlink:href="#aN" transform="matrix(1,0,0,1,1131.0566037735848,718.1132075471698) translate(72.525 76.19999999999999)"/><use xlink:href="#ah" transform="matrix(1,0,0,1,1131.0566037735848,718.1132075471698) translate(42.574999999999996 97.8)"/><use xlink:href="#aH" transform="matrix(1,0,0,1,1131.0566037735848,718.1132075471698) translate(24.124999999999993 119.4)"/><use xlink:href="#aO" transform="matrix(1,0,0,1,1131.0566037735848,718.1132075471698) translate(52.05 141)"/></g><path d="M1076.94 822.1h47.88v2h-49.88v-15.2h2zm0-34.8h-2v-13.2h-29.65v-2h31.64z"/><path d="M1126.06 823.1l.72 1h-1.96v-2h1.96zM1044.56 777.75l-14.27-4.64 14.26-4.62z"/><path d="M1045.56 779.12l-18.5-6 18.5-6.02zm-12.03-6l10.03 3.25v-6.52z"/><g><use xlink:href="#aP" transform="matrix(1,0,0,1,1061.263355273585,787.3132075471698) translate(0 14.4)"/></g><path d="M866.06 713.1h160v120h-160z" stroke="#000" stroke-width="2" fill="#d1bcd2"/><path d="M882.06 713.1v120m128-120v120" stroke="#000" stroke-width="2" fill="none"/><g><use xlink:href="#B" transform="matrix(1,0,0,1,891.0566037735849,718.1132075471698) translate(8.574999999999996 37)"/><use xlink:href="#aQ" transform="matrix(1,0,0,1,891.0566037735849,718.1132075471698) translate(6.524999999999999 58.6)"/><use xlink:href="#aR" transform="matrix(1,0,0,1,891.0566037735849,718.1132075471698) translate(24.474999999999998 58.6)"/><use xlink:href="#aS" transform="matrix(1,0,0,1,891.0566037735849,718.1132075471698) translate(84.475 58.6)"/><use xlink:href="#aT" transform="matrix(1,0,0,1,891.0566037735849,718.1132075471698) translate(19.725 80.20000000000002)"/></g><path d="M865.06 773.1h-49v-40.04H785.3" stroke="#000" stroke-width="2" fill="none"/><path d="M866.06 774.1h-1v-2h1zM784.56 737.7l-14.27-4.64 14.26-4.64z"/><path d="M785.56 739.07l-18.5-6 18.5-6.03zm-12.03-6l10.03 3.25v-6.52z"/><path d="M729.23 693.06c20.34 0 36.83 17.9 36.83 40s-16.5 40-36.83 40H618.76c-20.34 0-36.83-17.9-36.83-40s16.5-40 36.83-40z" stroke="#000" stroke-width="2" fill="#fff"/><g><use xlink:href="#aU" transform="matrix(1,0,0,1,586.934378281185,698.0566037735849) translate(18.674999999999997 27.799999999999997)"/><use xlink:href="#aV" transform="matrix(1,0,0,1,586.934378281185,698.0566037735849) translate(68.525 27.799999999999997)"/><use xlink:href="#C" transform="matrix(1,0,0,1,586.934378281185,698.0566037735849) translate(13.125 49.4)"/><use xlink:href="#l" transform="matrix(1,0,0,1,586.934378281185,698.0566037735849) translate(119.87500000000001 49.4)"/></g><path d="M580.93 733.06H526V573.1h-36.7" stroke="#000" stroke-width="2" fill="none"/><path d="M581.93 733.06l.04 1h-1.04v-2H582zM488.56 577.75l-14.27-4.64 14.26-4.62z"/><path d="M489.56 579.12l-18.5-6 18.5-6.02zm-12.03-6l10.03 3.25v-6.52zM989.92 916.56H839.24v-2h148.68v-12.4h2zm166.92-48.4H989.92v12.4h-2v-14.4h168.92zM1158.8 868.15h-1.96v-2h.5zM838.5 920.2l-14.26-4.64 14.26-4.64z"/><path d="M839.5 921.57l-18.5-6 18.5-6.03zm-12.03-6l10.03 3.25v-6.52z"/><g><use xlink:href="#aW" transform="matrix(1,0,0,1,977.447132093833,880.5515140057487) translate(0 14.4)"/></g><path d="M660 867.06h160v97H660z" stroke="#000" stroke-width="2" fill="#d1bcd2"/><path d="M676 867.06v97m128-97v97" stroke="#000" stroke-width="2" fill="none"/><g><use xlink:href="#aX" transform="matrix(1,0,0,1,685,872.0566037735849) translate(3.7249999999999943 14.69999999999999)"/><use xlink:href="#aY" transform="matrix(1,0,0,1,685,872.0566037735849) translate(81.275 14.69999999999999)"/><use xlink:href="#aZ" transform="matrix(1,0,0,1,685,872.0566037735849) translate(5 36.29999999999999)"/><use xlink:href="#ba" transform="matrix(1,0,0,1,685,872.0566037735849) translate(35 36.29999999999999)"/><use xlink:href="#aD" transform="matrix(1,0,0,1,685,872.0566037735849) translate(90 36.29999999999999)"/><use xlink:href="#bb" transform="matrix(1,0,0,1,685,872.0566037735849) translate(10.074999999999996 57.89999999999999)"/><use xlink:href="#bc" transform="matrix(1,0,0,1,685,872.0566037735849) translate(29.549999999999997 79.5)"/></g><path d="M1120 73.57h240v60h-240z" stroke="#000" stroke-opacity="0" stroke-width="2" fill="#fff" fill-opacity="0"/><g><use xlink:href="#bd" transform="matrix(1,0,0,1,1125,78.57075471698114) translate(96.525 28.6)"/></g><path d="M1153 116.54h174v26h-174z" stroke="#000" stroke-width="2" fill="#fff"/><g><use xlink:href="#be" transform="matrix(1,0,0,1,1158,121.54245283018867) translate(39.574999999999996 14.4)"/></g><path d="M1240 156.54l80 20-80 20-80-20z" stroke="#000" stroke-width="2" fill="#fff"/><g><use xlink:href="#bf" transform="matrix(1,0,0,1,1165,161.54245283018867) translate(40.574999999999996 18.6)"/></g><path d="M1288 210.54c17.67 0 32 5.82 32 13s-14.33 13-32 13h-96c-17.67 0-32-5.82-32-13s14.33-13 32-13z" stroke="#000" stroke-width="2" fill="#fff"/><g><use xlink:href="#bg" transform="matrix(1,0,0,1,1165,215.54245283018867) translate(18.074999999999996 14.4)"/><use xlink:href="#bh" transform="matrix(1,0,0,1,1165,215.54245283018867) translate(100.975 14.4)"/></g><path d="M1160 257.18l160-6.64v40h-160z" stroke="#000" stroke-width="2" fill="#fff"/><g><use xlink:href="#bi" transform="matrix(1,0,0,1,1165,262.2091194968554) translate(27.124999999999993 15.6)"/></g><path d="M1160 304.54h160v48h-160z" stroke="#000" stroke-width="2" fill="#fff"/><path d="M1176 304.54v48m128-48v48" stroke="#000" stroke-width="2" fill="none"/><g><use xlink:href="#bj" transform="matrix(1,0,0,1,1185,309.54245283018867) translate(11.549999999999997 14.4)"/><use xlink:href="#bk" transform="matrix(1,0,0,1,1185,309.54245283018867) translate(22.525 36)"/></g><path d="M659 915.56h-87.72V794.1h-69.5" stroke="#000" stroke-width="2" fill="none"/><path d="M660 916.56h-1v-2h1zM501.06 798.75l-14.27-4.64 14.26-4.62z"/><path d="M502.06 800.12l-18.5-6 18.5-6.02zm-12.03-6l10.03 3.25v-6.52z"/><path d="M1160 376.54h160v39h-160z" fill="#d1bcd2"/><path d="M1176 376.54h-16v39h16" stroke="#000" stroke-width="2" fill="none"/><g><use xlink:href="#bl" transform="matrix(1,0,0,1,1175,381.5424528301887) translate(0 18.1)"/><use xlink:href="#bk" transform="matrix(1,0,0,1,1175,381.5424528301887) translate(75 18.1)"/></g><path d="M1160 433.54h160v39h-160z" fill="#c1e4f7"/><path d="M1176 433.54h-16v39h16" stroke="#000" stroke-width="2" fill="none"/><g><use xlink:href="#aM" transform="matrix(1,0,0,1,1175,438.5424528301887) translate(0 18.1)"/><use xlink:href="#bm" transform="matrix(1,0,0,1,1175,438.5424528301887) translate(42.900000000000006 18.1)"/></g><defs><path fill="#999" d="M24 0v-248h195v40H76v63h132v40H76v65h150V0H24" id="bn"/><path fill="#999" d="M175 0L67-191c6 58 2 128 3 191H24v-248h59L193-55c-6-58-2-129-3-193h46V0h-61" id="bo"/><path fill="#999" d="M67-125c0 54 23 88 75 88 28 0 53-7 68-21v-34h-60v-39h108v91C232-14 192 4 140 4 58 4 20-42 15-125 8-236 126-280 215-234c19 10 29 26 37 47l-47 15c-11-23-29-39-63-39-53 1-75 33-75 86" id="bp"/><path fill="#999" d="M199 0l-22-63H83L61 0H9l90-248h61L250 0h-51zm-33-102l-36-108c-10 38-24 72-36 108h72" id="bq"/><g id="a"><use transform="matrix(0.09876543209876544,0,0,0.09876543209876544,0,0)" xlink:href="#bn"/><use transform="matrix(0.09876543209876544,0,0,0.09876543209876544,23.703703703703706,0)" xlink:href="#bo"/><use transform="matrix(0.09876543209876544,0,0,0.09876543209876544,49.283950617283956,0)" xlink:href="#bp"/><use transform="matrix(0.09876543209876544,0,0,0.09876543209876544,76.93827160493828,0)" xlink:href="#bq"/><use transform="matrix(0.09876543209876544,0,0,0.09876543209876544,102.51851851851853,0)" xlink:href="#bp"/><use transform="matrix(0.09876543209876544,0,0,0.09876543209876544,130.17283950617286,0)" xlink:href="#bn"/></g><path fill="#999" d="M230 0l2-204L168 0h-37L68-204 70 0H24v-248h70l56 185 57-185h69V0h-46" id="br"/><path fill="#999" d="M147 0H94L2-248h55l64 206c17-72 42-137 63-206h54" id="bs"/><path fill="#999" d="M24-248c93 1 206-16 204 79-1 75-69 88-152 82V0H24v-248zm52 121c47 0 100 7 100-41 0-47-54-39-100-39v80" id="bt"/><g id="b"><use transform="matrix(0.09876543209876544,0,0,0.09876543209876544,0,0)" xlink:href="#br"/><use transform="matrix(0.09876543209876544,0,0,0.09876543209876544,29.530864197530867,0)" xlink:href="#bs"/><use transform="matrix(0.09876543209876544,0,0,0.09876543209876544,53.23456790123457,0)" xlink:href="#bt"/></g><path fill="#999" d="M238-95c0 69-44 99-111 99C63 4 22-25 22-93v-155h51v151c-1 38 19 59 55 60 90 1 49-130 58-211h52v153" id="bu"/><path fill="#999" d="M169-182c-1-43-94-46-97-3 18 66 151 10 154 114 3 95-165 93-204 36-6-8-10-19-12-30l50-8c3 46 112 56 116 5-17-69-150-10-154-114-4-87 153-88 188-35 5 8 8 18 10 28" id="bv"/><path fill="#999" d="M240-174c0 40-23 61-54 70L253 0h-59l-57-94H76V0H24v-248c93 4 217-23 216 74zM76-134c48-2 112 12 112-38 0-48-66-32-112-35v73" id="bw"/><g id="c"><use transform="matrix(0.09876543209876544,0,0,0.09876543209876544,0,0)" xlink:href="#bu"/><use transform="matrix(0.09876543209876544,0,0,0.09876543209876544,25.58024691358025,0)" xlink:href="#bv"/><use transform="matrix(0.09876543209876544,0,0,0.09876543209876544,49.283950617283956,0)" xlink:href="#bn"/><use transform="matrix(0.09876543209876544,0,0,0.09876543209876544,72.98765432098766,0)" xlink:href="#bw"/></g><path fill="#999" d="M76-208v77h127v40H76V0H24v-248h183v40H76" id="bx"/><path fill="#999" d="M24 0v-248h52v208h133V0H24" id="by"/><path fill="#999" d="M140-251c80 0 125 45 125 126S219 4 139 4C58 4 15-44 15-125s44-126 125-126zm-1 214c52 0 73-35 73-88 0-50-21-86-72-86-52 0-73 35-73 86s22 88 72 88" id="bz"/><path fill="#999" d="M275 0h-61l-44-196L126 0H64L0-248h53L97-49l45-199h58l43 199 44-199h52" id="bA"/><g id="d"><use transform="matrix(0.09876543209876544,0,0,0.09876543209876544,0,0)" xlink:href="#bx"/><use transform="matrix(0.09876543209876544,0,0,0.09876543209876544,21.62962962962963,0)" xlink:href="#by"/><use transform="matrix(0.09876543209876544,0,0,0.09876543209876544,43.25925925925926,0)" xlink:href="#bz"/><use transform="matrix(0.09876543209876544,0,0,0.09876543209876544,70.91358024691358,0)" xlink:href="#bA"/></g><path fill="#999" d="M140-251c81 0 123 46 123 126C263-46 219 4 140 4 59 4 17-45 17-125s42-126 123-126zm0 227c63 0 89-41 89-101s-29-99-89-99c-61 0-89 39-89 99S79-25 140-24" id="bB"/><path fill="#999" d="M206 0h-36l-40-164L89 0H53L-1-190h32L70-26l43-164h34l41 164 42-164h31" id="bC"/><path fill="#999" d="M100-194c63 0 86 42 84 106H49c0 40 14 67 53 68 26 1 43-12 49-29l28 8c-11 28-37 45-77 45C44 4 14-33 15-96c1-61 26-98 85-98zm52 81c6-60-76-77-97-28-3 7-6 17-6 28h103" id="bD"/><path fill="#999" d="M117-194c89-4 53 116 60 194h-32v-121c0-31-8-49-39-48C34-167 62-67 57 0H25l-1-190h30c1 10-1 24 2 32 11-22 29-35 61-36" id="bE"/><g id="e"><use transform="matrix(0.06172839506172778,0,0,0.06172839506172778,0,0)" xlink:href="#bB"/><use transform="matrix(0.06172839506172778,0,0,0.06172839506172778,17.28395061728378,0)" xlink:href="#bC"/><use transform="matrix(0.06172839506172778,0,0,0.06172839506172778,33.271604938271274,0)" xlink:href="#bD"/><use transform="matrix(0.06172839506172778,0,0,0.06172839506172778,45.61728395061683,0)" xlink:href="#bE"/></g><path fill="#999" d="M47-170H22l-4-78h33" id="bF"/><path fill="#999" d="M240 0l2-218c-23 76-54 145-80 218h-23L58-218 59 0H30v-248h44l77 211c21-75 51-140 76-211h43V0h-30" id="bG"/><path fill="#999" d="M141-36C126-15 110 5 73 4 37 3 15-17 15-53c-1-64 63-63 125-63 3-35-9-54-41-54-24 1-41 7-42 31l-33-3c5-37 33-52 76-52 45 0 72 20 72 64v82c-1 20 7 32 28 27v20c-31 9-61-2-59-35zM48-53c0 20 12 33 32 33 41-3 63-29 60-74-43 2-92-5-92 41" id="bH"/><path fill="#999" d="M24 0v-261h32V0H24" id="bI"/><path fill="#999" d="M179-190L93 31C79 59 56 82 12 73V49c39 6 53-20 64-50L1-190h34L92-34l54-156h33" id="bJ"/><g id="f"><use transform="matrix(0.06172839506172778,0,0,0.06172839506172778,0,0)" xlink:href="#bB"/><use transform="matrix(0.06172839506172778,0,0,0.06172839506172778,17.28395061728378,0)" xlink:href="#bF"/><use transform="matrix(0.06172839506172778,0,0,0.06172839506172778,21.481481481481268,0)" xlink:href="#bG"/><use transform="matrix(0.06172839506172778,0,0,0.06172839506172778,39.938271604937874,0)" xlink:href="#bH"/><use transform="matrix(0.06172839506172778,0,0,0.06172839506172778,52.28395061728343,0)" xlink:href="#bI"/><use transform="matrix(0.06172839506172778,0,0,0.06172839506172778,57.160493827159925,0)" xlink:href="#bI"/><use transform="matrix(0.06172839506172778,0,0,0.06172839506172778,62.03703703703642,0)" xlink:href="#bD"/><use transform="matrix(0.06172839506172778,0,0,0.06172839506172778,74.38271604938197,0)" xlink:href="#bJ"/></g><path fill="#999" d="M32 76v-337h29V76H32" id="bK"/><use transform="matrix(0.06172839506172778,0,0,0.06172839506172778,0,0)" xlink:href="#bK" id="g"/><path fill="#999" d="M153-248C145-148 188 4 80 4 36 3 13-21 6-62l32-5c4 25 16 42 43 43 27 0 39-20 39-49v-147H72v-28h81" id="bL"/><path fill="#999" d="M84 4C-5 8 30-112 23-190h32v120c0 31 7 50 39 49 72-2 45-101 50-169h31l1 190h-30c-1-10 1-25-2-33-11 22-28 36-60 37" id="bM"/><g id="h"><use transform="matrix(0.06172839506172778,0,0,0.06172839506172778,0,0)" xlink:href="#bL"/><use transform="matrix(0.06172839506172778,0,0,0.06172839506172778,11.111111111111,0)" xlink:href="#bM"/><use transform="matrix(0.06172839506172778,0,0,0.06172839506172778,23.456790123456557,0)" xlink:href="#bE"/><use transform="matrix(0.06172839506172778,0,0,0.06172839506172778,35.80246913580211,0)" xlink:href="#bD"/></g><path fill="#999" d="M101-251c82-7 93 87 43 132L82-64C71-53 59-42 53-27h129V0H18c2-99 128-94 128-182 0-28-16-43-45-43s-46 15-49 41l-32-3c6-41 34-60 81-64" id="bN"/><path fill="#999" d="M134-131c28 9 52 24 51 62-1 50-34 73-85 73S17-19 16-69c0-36 21-54 49-61-75-25-45-126 34-121 46 3 78 18 79 63 0 33-17 51-44 57zm-34-11c31 1 46-15 46-44 0-28-17-43-47-42-29 0-46 13-45 42 1 28 16 44 46 44zm1 122c35 0 51-18 51-52 0-30-18-46-53-46-33 0-51 17-51 47 0 34 19 51 53 51" id="bO"/><path fill="#999" d="M68-38c1 34 0 65-14 84H32c9-13 17-26 17-46H33v-38h35" id="bP"/><g id="i"><use transform="matrix(0.06172839506172778,0,0,0.06172839506172778,0,0)" xlink:href="#bN"/><use transform="matrix(0.06172839506172778,0,0,0.06172839506172778,12.345679012345556,0)" xlink:href="#bO"/><use transform="matrix(0.06172839506172778,0,0,0.06172839506172778,24.691358024691112,0)" xlink:href="#bP"/></g><path fill="#999" d="M101-251c68 0 85 55 85 127S166 4 100 4C33 4 14-52 14-124c0-73 17-127 87-127zm-1 229c47 0 54-49 54-102s-4-102-53-102c-51 0-55 48-55 102 0 53 5 102 54 102" id="bQ"/><path fill="#999" d="M27 0v-27h64v-190l-56 39v-29l58-41h29v221h61V0H27" id="bR"/><g id="j"><use transform="matrix(0.06172839506172778,0,0,0.06172839506172778,0,0)" xlink:href="#bN"/><use transform="matrix(0.06172839506172778,0,0,0.06172839506172778,12.345679012345556,0)" xlink:href="#bQ"/><use transform="matrix(0.06172839506172778,0,0,0.06172839506172778,24.691358024691112,0)" xlink:href="#bR"/><use transform="matrix(0.06172839506172778,0,0,0.06172839506172778,37.03703703703667,0)" xlink:href="#bO"/></g><path d="M30 0v-248h33v221h125V0H30" id="bS"/><path d="M141-36C126-15 110 5 73 4 37 3 15-17 15-53c-1-64 63-63 125-63 3-35-9-54-41-54-24 1-41 7-42 31l-33-3c5-37 33-52 76-52 45 0 72 20 72 64v82c-1 20 7 32 28 27v20c-31 9-61-2-59-35zM48-53c0 20 12 33 32 33 41-3 63-29 60-74-43 2-92-5-92 41" id="bT"/><path d="M117-194c89-4 53 116 60 194h-32v-121c0-31-8-49-39-48C34-167 62-67 57 0H25l-1-190h30c1 10-1 24 2 32 11-22 29-35 61-36" id="bU"/><path d="M85-194c31 0 48 13 60 33l-1-100h32l1 261h-30c-2-10 0-23-3-31C134-8 116 4 85 4 32 4 16-35 15-94c0-66 23-100 70-100zm9 24c-40 0-46 34-46 75 0 40 6 74 45 74 42 0 51-32 51-76 0-42-9-74-50-73" id="bV"/><path d="M24-231v-30h32v30H24zM24 0v-190h32V0H24" id="bW"/><path d="M177-190C167-65 218 103 67 71c-23-6-38-20-44-43l32-5c15 47 100 32 89-28v-30C133-14 115 1 83 1 29 1 15-40 15-95c0-56 16-97 71-98 29-1 48 16 59 35 1-10 0-23 2-32h30zM94-22c36 0 50-32 50-73 0-42-14-75-50-75-39 0-46 34-46 75s6 73 46 73" id="bX"/><g id="k"><use transform="matrix(0.05,0,0,0.05,0,0)" xlink:href="#bS"/><use transform="matrix(0.05,0,0,0.05,10,0)" xlink:href="#bT"/><use transform="matrix(0.05,0,0,0.05,20,0)" xlink:href="#bU"/><use transform="matrix(0.05,0,0,0.05,30,0)" xlink:href="#bV"/><use transform="matrix(0.05,0,0,0.05,40,0)" xlink:href="#bW"/><use transform="matrix(0.05,0,0,0.05,43.95,0)" xlink:href="#bU"/><use transform="matrix(0.05,0,0,0.05,53.95,0)" xlink:href="#bX"/></g><path d="M30-248c87 1 191-15 191 75 0 78-77 80-158 76V0H30v-248zm33 125c57 0 124 11 124-50 0-59-68-47-124-48v98" id="bY"/><path d="M100-194c63 0 86 42 84 106H49c0 40 14 67 53 68 26 1 43-12 49-29l28 8c-11 28-37 45-77 45C44 4 14-33 15-96c1-61 26-98 85-98zm52 81c6-60-76-77-97-28-3 7-6 17-6 28h103" id="bZ"/><g id="l"><use transform="matrix(0.05,0,0,0.05,0,0)" xlink:href="#bY"/><use transform="matrix(0.05,0,0,0.05,12,0)" xlink:href="#bT"/><use transform="matrix(0.05,0,0,0.05,22,0)" xlink:href="#bX"/><use transform="matrix(0.05,0,0,0.05,32,0)" xlink:href="#bZ"/></g><path d="M127-220V0H93v-220H8v-28h204v28h-85" id="ca"/><path d="M106-169C34-169 62-67 57 0H25v-261h32l-1 103c12-21 28-36 61-36 89 0 53 116 60 194h-32v-121c2-32-8-49-39-48" id="cb"/><g id="m"><use transform="matrix(0.05,0,0,0.05,0,0)" xlink:href="#ca"/><use transform="matrix(0.05,0,0,0.05,10.950000000000001,0)" xlink:href="#cb"/><use transform="matrix(0.05,0,0,0.05,20.950000000000003,0)" xlink:href="#bZ"/></g><path d="M63-220v92h138v28H63V0H30v-248h175v28H63" id="cc"/><g id="n"><use transform="matrix(0.05,0,0,0.05,0,0)" xlink:href="#cc"/><use transform="matrix(0.05,0,0,0.05,10.950000000000001,0)" xlink:href="#bZ"/><use transform="matrix(0.05,0,0,0.05,20.950000000000003,0)" xlink:href="#bZ"/><use transform="matrix(0.05,0,0,0.05,30.950000000000003,0)" xlink:href="#bV"/></g><path d="M233-177c-1 41-23 64-60 70L243 0h-38l-65-103H63V0H30v-248c88 3 205-21 203 71zM63-129c60-2 137 13 137-47 0-61-80-42-137-45v92" id="cd"/><path d="M24 0v-261h32V0H24" id="ce"/><path d="M108 0H70L1-190h34L89-25l56-165h34" id="cf"/><path d="M59-47c-2 24 18 29 38 22v24C64 9 27 4 27-40v-127H5v-23h24l9-43h21v43h35v23H59v120" id="cg"/><g id="o"><use transform="matrix(0.05,0,0,0.05,0,0)" xlink:href="#cd"/><use transform="matrix(0.05,0,0,0.05,12.950000000000001,0)" xlink:href="#bZ"/><use transform="matrix(0.05,0,0,0.05,22.950000000000003,0)" xlink:href="#ce"/><use transform="matrix(0.05,0,0,0.05,26.900000000000002,0)" xlink:href="#bZ"/><use transform="matrix(0.05,0,0,0.05,36.900000000000006,0)" xlink:href="#cf"/><use transform="matrix(0.05,0,0,0.05,45.900000000000006,0)" xlink:href="#bT"/><use transform="matrix(0.05,0,0,0.05,55.900000000000006,0)" xlink:href="#bU"/><use transform="matrix(0.05,0,0,0.05,65.9,0)" xlink:href="#cg"/></g><path d="M114-163C36-179 61-72 57 0H25l-1-190h30c1 12-1 29 2 39 6-27 23-49 58-41v29" id="ch"/><path d="M100-194c62-1 85 37 85 99 1 63-27 99-86 99S16-35 15-95c0-66 28-99 85-99zM99-20c44 1 53-31 53-75 0-43-8-75-51-75s-53 32-53 75 10 74 51 75" id="ci"/><path d="M115-194c55 1 70 41 70 98S169 2 115 4C84 4 66-9 55-30l1 105H24l-1-265h31l2 30c10-21 28-34 59-34zm-8 174c40 0 45-34 45-75s-6-73-45-74c-42 0-51 32-51 76 0 43 10 73 51 73" id="cj"/><path d="M135-143c-3-34-86-38-87 0 15 53 115 12 119 90S17 21 10-45l28-5c4 36 97 45 98 0-10-56-113-15-118-90-4-57 82-63 122-42 12 7 21 19 24 35" id="ck"/><g id="p"><use transform="matrix(0.05,0,0,0.05,0,0)" xlink:href="#bY"/><use transform="matrix(0.05,0,0,0.05,12,0)" xlink:href="#ch"/><use transform="matrix(0.05,0,0,0.05,17.95,0)" xlink:href="#ci"/><use transform="matrix(0.05,0,0,0.05,27.950000000000003,0)" xlink:href="#cj"/><use transform="matrix(0.05,0,0,0.05,37.95,0)" xlink:href="#ci"/><use transform="matrix(0.05,0,0,0.05,47.95,0)" xlink:href="#ck"/><use transform="matrix(0.05,0,0,0.05,56.95,0)" xlink:href="#bT"/><use transform="matrix(0.05,0,0,0.05,66.95,0)" xlink:href="#ce"/></g><path d="M0 4l72-265h28L28 4H0" id="cl"/><path d="M212-179c-10-28-35-45-73-45-59 0-87 40-87 99 0 60 29 101 89 101 43 0 62-24 78-52l27 14C228-24 195 4 139 4 59 4 22-46 18-125c-6-104 99-153 187-111 19 9 31 26 39 46" id="cm"/><path d="M103-251c84 0 111 97 45 133-19 10-37 24-39 52H78c0-63 77-55 77-114 0-30-21-42-52-43-32 0-53 17-56 46l-32-2c7-45 34-72 88-72zM77 0v-35h34V0H77" id="cn"/><g id="q"><use transform="matrix(0.05,0,0,0.05,0,0)" xlink:href="#bY"/><use transform="matrix(0.05,0,0,0.05,12,0)" xlink:href="#ch"/><use transform="matrix(0.05,0,0,0.05,17.95,0)" xlink:href="#ci"/><use transform="matrix(0.05,0,0,0.05,27.950000000000003,0)" xlink:href="#cl"/><use transform="matrix(0.05,0,0,0.05,32.95,0)" xlink:href="#cm"/><use transform="matrix(0.05,0,0,0.05,45.900000000000006,0)" xlink:href="#ci"/><use transform="matrix(0.05,0,0,0.05,55.900000000000006,0)" xlink:href="#bU"/><use transform="matrix(0.05,0,0,0.05,65.9,0)" xlink:href="#cn"/></g><g id="r"><use transform="matrix(0.05,0,0,0.05,0,0)" xlink:href="#bY"/><use transform="matrix(0.05,0,0,0.05,12,0)" xlink:href="#ch"/><use transform="matrix(0.05,0,0,0.05,17.95,0)" xlink:href="#ci"/></g><path d="M137 0h-34L2-248h35l83 218 83-218h36" id="co"/><g id="s"><use transform="matrix(0.05,0,0,0.05,0,0)" xlink:href="#co"/><use transform="matrix(0.05,0,0,0.05,11,0)" xlink:href="#ci"/><use transform="matrix(0.05,0,0,0.05,21,0)" xlink:href="#cg"/><use transform="matrix(0.05,0,0,0.05,26,0)" xlink:href="#bZ"/></g><path d="M101-234c-31-9-42 10-38 44h38v23H63V0H32v-167H5v-23h27c-7-52 17-82 69-68v24" id="cp"/><path d="M210-169c-67 3-38 105-44 169h-31v-121c0-29-5-50-35-48C34-165 62-65 56 0H25l-1-190h30c1 10-1 24 2 32 10-44 99-50 107 0 11-21 27-35 58-36 85-2 47 119 55 194h-31v-121c0-29-5-49-35-48" id="cq"/><g id="t"><use transform="matrix(0.05,0,0,0.05,0,0)" xlink:href="#cm"/><use transform="matrix(0.05,0,0,0.05,12.950000000000001,0)" xlink:href="#ci"/><use transform="matrix(0.05,0,0,0.05,22.950000000000003,0)" xlink:href="#bU"/><use transform="matrix(0.05,0,0,0.05,32.95,0)" xlink:href="#cp"/><use transform="matrix(0.05,0,0,0.05,37.95,0)" xlink:href="#bW"/><use transform="matrix(0.05,0,0,0.05,41.900000000000006,0)" xlink:href="#ch"/><use transform="matrix(0.05,0,0,0.05,47.85000000000001,0)" xlink:href="#cq"/><use transform="matrix(0.05,0,0,0.05,62.80000000000001,0)" xlink:href="#bT"/><use transform="matrix(0.05,0,0,0.05,72.80000000000001,0)" xlink:href="#cg"/><use transform="matrix(0.05,0,0,0.05,77.80000000000001,0)" xlink:href="#bW"/><use transform="matrix(0.05,0,0,0.05,81.75000000000001,0)" xlink:href="#ci"/><use transform="matrix(0.05,0,0,0.05,91.75000000000001,0)" xlink:href="#bU"/></g><path d="M206 0h-36l-40-164L89 0H53L-1-190h32L70-26l43-164h34l41 164 42-164h31" id="cr"/><g id="u"><use transform="matrix(0.05,0,0,0.05,0,0)" xlink:href="#cr"/><use transform="matrix(0.05,0,0,0.05,12.950000000000001,0)" xlink:href="#cl"/></g><path d="M30-248c118-7 216 8 213 122C240-48 200 0 122 0H30v-248zM63-27c89 8 146-16 146-99s-60-101-146-95v194" id="cs"/><g id="v"><use transform="matrix(0.05,0,0,0.05,0,0)" xlink:href="#cs"/><use transform="matrix(0.05,0,0,0.05,12.950000000000001,0)" xlink:href="#bZ"/><use transform="matrix(0.05,0,0,0.05,22.950000000000003,0)" xlink:href="#cg"/><use transform="matrix(0.05,0,0,0.05,27.950000000000003,0)" xlink:href="#bT"/><use transform="matrix(0.05,0,0,0.05,37.95,0)" xlink:href="#bW"/><use transform="matrix(0.05,0,0,0.05,41.900000000000006,0)" xlink:href="#ce"/><use transform="matrix(0.05,0,0,0.05,45.85000000000001,0)" xlink:href="#bZ"/><use transform="matrix(0.05,0,0,0.05,55.85,0)" xlink:href="#bV"/></g><path d="M115-194c53 0 69 39 70 98 0 66-23 100-70 100C84 3 66-7 56-30L54 0H23l1-261h32v101c10-23 28-34 59-34zm-8 174c40 0 45-34 45-75 0-40-5-75-45-74-42 0-51 32-51 76 0 43 10 73 51 73" id="ct"/><path d="M96-169c-40 0-48 33-48 73s9 75 48 75c24 0 41-14 43-38l32 2c-6 37-31 61-74 61-59 0-76-41-82-99-10-93 101-131 147-64 4 7 5 14 7 22l-32 3c-4-21-16-35-41-35" id="cu"/><path d="M143 0L79-87 56-68V0H24v-261h32v163l83-92h37l-77 82L181 0h-38" id="cv"/><g id="w"><use transform="matrix(0.05,0,0,0.05,0,0)" xlink:href="#cc"/><use transform="matrix(0.05,0,0,0.05,10.950000000000001,0)" xlink:href="#bZ"/><use transform="matrix(0.05,0,0,0.05,20.950000000000003,0)" xlink:href="#bZ"/><use transform="matrix(0.05,0,0,0.05,30.950000000000003,0)" xlink:href="#bV"/><use transform="matrix(0.05,0,0,0.05,40.95,0)" xlink:href="#ct"/><use transform="matrix(0.05,0,0,0.05,50.95,0)" xlink:href="#bT"/><use transform="matrix(0.05,0,0,0.05,60.95,0)" xlink:href="#cu"/><use transform="matrix(0.05,0,0,0.05,69.95,0)" xlink:href="#cv"/></g><g id="x"><use transform="matrix(0.05,0,0,0.05,0,0)" xlink:href="#cc"/><use transform="matrix(0.05,0,0,0.05,10.950000000000001,0)" xlink:href="#ci"/><use transform="matrix(0.05,0,0,0.05,20.950000000000003,0)" xlink:href="#ch"/><use transform="matrix(0.05,0,0,0.05,26.900000000000002,0)" xlink:href="#cq"/></g><g id="y"><use transform="matrix(0.05,0,0,0.05,0,0)" xlink:href="#cm"/><use transform="matrix(0.05,0,0,0.05,12.950000000000001,0)" xlink:href="#ci"/><use transform="matrix(0.05,0,0,0.05,22.950000000000003,0)" xlink:href="#bU"/></g><path d="M185-189c-5-48-123-54-124 2 14 75 158 14 163 119 3 78-121 87-175 55-17-10-28-26-33-46l33-7c5 56 141 63 141-1 0-78-155-14-162-118-5-82 145-84 179-34 5 7 8 16 11 25" id="cw"/><path d="M84 4C-5 8 30-112 23-190h32v120c0 31 7 50 39 49 72-2 45-101 50-169h31l1 190h-30c-1-10 1-25-2-33-11 22-28 36-60 37" id="cx"/><g id="z"><use transform="matrix(0.05,0,0,0.05,0,0)" xlink:href="#cw"/><use transform="matrix(0.05,0,0,0.05,12,0)" xlink:href="#cx"/><use transform="matrix(0.05,0,0,0.05,22,0)" xlink:href="#ct"/><use transform="matrix(0.05,0,0,0.05,32,0)" xlink:href="#cq"/><use transform="matrix(0.05,0,0,0.05,46.95,0)" xlink:href="#bW"/><use transform="matrix(0.05,0,0,0.05,50.900000000000006,0)" xlink:href="#cg"/><use transform="matrix(0.05,0,0,0.05,55.900000000000006,0)" xlink:href="#cn"/></g><g id="A"><use transform="matrix(0.05,0,0,0.05,0,0)" xlink:href="#cm"/><use transform="matrix(0.05,0,0,0.05,12.950000000000001,0)" xlink:href="#bT"/><use transform="matrix(0.05,0,0,0.05,22.950000000000003,0)" xlink:href="#bU"/><use transform="matrix(0.05,0,0,0.05,32.95,0)" xlink:href="#cu"/><use transform="matrix(0.05,0,0,0.05,41.95,0)" xlink:href="#bZ"/><use transform="matrix(0.05,0,0,0.05,51.95,0)" xlink:href="#ce"/></g><g id="B"><use transform="matrix(0.05,0,0,0.05,0,0)" xlink:href="#cw"/><use transform="matrix(0.05,0,0,0.05,12,0)" xlink:href="#cx"/><use transform="matrix(0.05,0,0,0.05,22,0)" xlink:href="#ct"/><use transform="matrix(0.05,0,0,0.05,32,0)" xlink:href="#cq"/><use transform="matrix(0.05,0,0,0.05,46.95,0)" xlink:href="#bW"/><use transform="matrix(0.05,0,0,0.05,50.900000000000006,0)" xlink:href="#ck"/><use transform="matrix(0.05,0,0,0.05,59.900000000000006,0)" xlink:href="#ck"/><use transform="matrix(0.05,0,0,0.05,68.9,0)" xlink:href="#bW"/><use transform="matrix(0.05,0,0,0.05,72.85000000000001,0)" xlink:href="#ci"/><use transform="matrix(0.05,0,0,0.05,82.85000000000001,0)" xlink:href="#bU"/></g><g id="C"><use transform="matrix(0.05,0,0,0.05,0,0)" xlink:href="#cm"/><use transform="matrix(0.05,0,0,0.05,12.950000000000001,0)" xlink:href="#ci"/><use transform="matrix(0.05,0,0,0.05,22.950000000000003,0)" xlink:href="#bU"/><use transform="matrix(0.05,0,0,0.05,32.95,0)" xlink:href="#cp"/><use transform="matrix(0.05,0,0,0.05,37.95,0)" xlink:href="#bW"/><use transform="matrix(0.05,0,0,0.05,41.900000000000006,0)" xlink:href="#ch"/><use transform="matrix(0.05,0,0,0.05,47.85000000000001,0)" xlink:href="#cq"/><use transform="matrix(0.05,0,0,0.05,62.80000000000001,0)" xlink:href="#bT"/><use transform="matrix(0.05,0,0,0.05,72.80000000000001,0)" xlink:href="#cg"/><use transform="matrix(0.05,0,0,0.05,77.80000000000001,0)" xlink:href="#bW"/><use transform="matrix(0.05,0,0,0.05,81.75000000000001,0)" xlink:href="#ci"/><use transform="matrix(0.05,0,0,0.05,91.75000000000001,0)" xlink:href="#bU"/></g><use transform="matrix(0.05,0,0,0.05,0,0)" xlink:href="#cl" id="D"/><g id="E"><use transform="matrix(0.05,0,0,0.05,0,0)" xlink:href="#cm"/><use transform="matrix(0.05,0,0,0.05,12.950000000000001,0)" xlink:href="#cb"/><use transform="matrix(0.05,0,0,0.05,22.950000000000003,0)" xlink:href="#bZ"/><use transform="matrix(0.05,0,0,0.05,32.95,0)" xlink:href="#cu"/><use transform="matrix(0.05,0,0,0.05,41.95,0)" xlink:href="#cv"/></g><g id="F"><use transform="matrix(0.05,0,0,0.05,0,0)" xlink:href="#bS"/><use transform="matrix(0.05,0,0,0.05,10,0)" xlink:href="#bW"/><use transform="matrix(0.05,0,0,0.05,13.949999999999998,0)" xlink:href="#bU"/><use transform="matrix(0.05,0,0,0.05,23.95,0)" xlink:href="#cv"/></g><g id="G"><use transform="matrix(0.05,0,0,0.05,0,0)" xlink:href="#bW"/><use transform="matrix(0.05,0,0,0.05,3.95,0)" xlink:href="#bU"/></g><path d="M30 0v-248h187v28H63v79h144v27H63v87h162V0H30" id="cy"/><g id="H"><use transform="matrix(0.05,0,0,0.05,0,0)" xlink:href="#cy"/><use transform="matrix(0.05,0,0,0.05,12,0)" xlink:href="#cq"/><use transform="matrix(0.05,0,0,0.05,26.950000000000003,0)" xlink:href="#bT"/><use transform="matrix(0.05,0,0,0.05,36.95,0)" xlink:href="#bW"/><use transform="matrix(0.05,0,0,0.05,40.900000000000006,0)" xlink:href="#ce"/></g><path d="M197 0v-115H63V0H30v-248h33v105h134v-105h34V0h-34" id="cz"/><g id="I"><use transform="matrix(0.05,0,0,0.05,0,0)" xlink:href="#cz"/><use transform="matrix(0.05,0,0,0.05,12.950000000000001,0)" xlink:href="#bT"/><use transform="matrix(0.05,0,0,0.05,22.950000000000003,0)" xlink:href="#ck"/></g><g id="J"><use transform="matrix(0.05,0,0,0.05,0,0)" xlink:href="#cx"/><use transform="matrix(0.05,0,0,0.05,10,0)" xlink:href="#ck"/><use transform="matrix(0.05,0,0,0.05,19,0)" xlink:href="#bZ"/><use transform="matrix(0.05,0,0,0.05,29,0)" xlink:href="#ch"/></g><g id="K"><use transform="matrix(0.05,0,0,0.05,0,0)" xlink:href="#co"/><use transform="matrix(0.05,0,0,0.05,11,0)" xlink:href="#ci"/><use transform="matrix(0.05,0,0,0.05,21,0)" xlink:href="#cg"/><use transform="matrix(0.05,0,0,0.05,26,0)" xlink:href="#bZ"/><use transform="matrix(0.05,0,0,0.05,36,0)" xlink:href="#bV"/></g><g id="L"><use transform="matrix(0.05,0,0,0.05,0,0)" xlink:href="#ci"/><use transform="matrix(0.05,0,0,0.05,10,0)" xlink:href="#bU"/></g><g id="M"><use transform="matrix(0.05,0,0,0.05,0,0)" xlink:href="#ck"/><use transform="matrix(0.05,0,0,0.05,9,0)" xlink:href="#cj"/><use transform="matrix(0.05,0,0,0.05,19,0)" xlink:href="#bZ"/><use transform="matrix(0.05,0,0,0.05,29,0)" xlink:href="#cu"/><use transform="matrix(0.05,0,0,0.05,38,0)" xlink:href="#bW"/><use transform="matrix(0.05,0,0,0.05,41.95,0)" xlink:href="#cp"/><use transform="matrix(0.05,0,0,0.05,46.95,0)" xlink:href="#bW"/><use transform="matrix(0.05,0,0,0.05,50.900000000000006,0)" xlink:href="#cu"/></g><g id="N"><use transform="matrix(0.05,0,0,0.05,0,0)" xlink:href="#ch"/><use transform="matrix(0.05,0,0,0.05,5.95,0)" xlink:href="#bZ"/><use transform="matrix(0.05,0,0,0.05,15.949999999999998,0)" xlink:href="#ce"/><use transform="matrix(0.05,0,0,0.05,19.9,0)" xlink:href="#bZ"/><use transform="matrix(0.05,0,0,0.05,29.899999999999995,0)" xlink:href="#cf"/><use transform="matrix(0.05,0,0,0.05,38.9,0)" xlink:href="#bT"/><use transform="matrix(0.05,0,0,0.05,48.9,0)" xlink:href="#bU"/><use transform="matrix(0.05,0,0,0.05,58.900000000000006,0)" xlink:href="#cg"/></g><g id="O"><use transform="matrix(0.05,0,0,0.05,0,0)" xlink:href="#cj"/><use transform="matrix(0.05,0,0,0.05,10,0)" xlink:href="#ch"/><use transform="matrix(0.05,0,0,0.05,15.949999999999998,0)" xlink:href="#ci"/><use transform="matrix(0.05,0,0,0.05,25.950000000000003,0)" xlink:href="#cj"/><use transform="matrix(0.05,0,0,0.05,35.95,0)" xlink:href="#ck"/><use transform="matrix(0.05,0,0,0.05,44.95,0)" xlink:href="#bT"/><use transform="matrix(0.05,0,0,0.05,54.95,0)" xlink:href="#ce"/><use transform="matrix(0.05,0,0,0.05,58.900000000000006,0)" xlink:href="#cn"/></g><path d="M137-103V0h-34v-103L8-248h37l75 118 75-118h37" id="cA"/><g id="P"><use transform="matrix(0.05,0,0,0.05,0,0)" xlink:href="#cA"/><use transform="matrix(0.05,0,0,0.05,10.35,0)" xlink:href="#bZ"/><use transform="matrix(0.05,0,0,0.05,20.35,0)" xlink:href="#ck"/></g><g id="Q"><use transform="matrix(0.05,0,0,0.05,0,0)" xlink:href="#bY"/><use transform="matrix(0.05,0,0,0.05,12,0)" xlink:href="#ch"/><use transform="matrix(0.05,0,0,0.05,17.95,0)" xlink:href="#ci"/><use transform="matrix(0.05,0,0,0.05,27.950000000000003,0)" xlink:href="#cj"/><use transform="matrix(0.05,0,0,0.05,37.95,0)" xlink:href="#ci"/><use transform="matrix(0.05,0,0,0.05,47.95,0)" xlink:href="#ck"/><use transform="matrix(0.05,0,0,0.05,56.95,0)" xlink:href="#bT"/><use transform="matrix(0.05,0,0,0.05,66.95,0)" xlink:href="#ce"/></g><path d="M47-170H22l-4-78h33" id="cB"/><g id="R"><use transform="matrix(0.05,0,0,0.05,0,0)" xlink:href="#cx"/><use transform="matrix(0.05,0,0,0.05,10,0)" xlink:href="#ck"/><use transform="matrix(0.05,0,0,0.05,19,0)" xlink:href="#bZ"/><use transform="matrix(0.05,0,0,0.05,29,0)" xlink:href="#ch"/><use transform="matrix(0.05,0,0,0.05,34.95,0)" xlink:href="#cB"/><use transform="matrix(0.05,0,0,0.05,38.35,0)" xlink:href="#ck"/></g><path d="M68-38c1 34 0 65-14 84H32c9-13 17-26 17-46H33v-38h35" id="cC"/><g id="S"><use transform="matrix(0.05,0,0,0.05,0,0)" xlink:href="#cf"/><use transform="matrix(0.05,0,0,0.05,9,0)" xlink:href="#ci"/><use transform="matrix(0.05,0,0,0.05,19,0)" xlink:href="#cg"/><use transform="matrix(0.05,0,0,0.05,24,0)" xlink:href="#bZ"/><use transform="matrix(0.05,0,0,0.05,34,0)" xlink:href="#cC"/></g><g id="T"><use transform="matrix(0.05,0,0,0.05,0,0)" xlink:href="#cf"/><use transform="matrix(0.05,0,0,0.05,9,0)" xlink:href="#ci"/><use transform="matrix(0.05,0,0,0.05,19,0)" xlink:href="#cg"/><use transform="matrix(0.05,0,0,0.05,24,0)" xlink:href="#bZ"/><use transform="matrix(0.05,0,0,0.05,34,0)" xlink:href="#ch"/></g><g id="U"><use transform="matrix(0.05,0,0,0.05,0,0)" xlink:href="#cg"/><use transform="matrix(0.05,0,0,0.05,5,0)" xlink:href="#ci"/><use transform="matrix(0.05,0,0,0.05,15,0)" xlink:href="#cg"/><use transform="matrix(0.05,0,0,0.05,20,0)" xlink:href="#bT"/><use transform="matrix(0.05,0,0,0.05,30,0)" xlink:href="#ce"/><use transform="matrix(0.05,0,0,0.05,33.95,0)" xlink:href="#ck"/><use transform="matrix(0.05,0,0,0.05,42.95,0)" xlink:href="#cC"/></g><g id="V"><use transform="matrix(0.05,0,0,0.05,0,0)" xlink:href="#bT"/><use transform="matrix(0.05,0,0,0.05,10,0)" xlink:href="#bU"/><use transform="matrix(0.05,0,0,0.05,20,0)" xlink:href="#bV"/></g><g id="W"><use transform="matrix(0.05,0,0,0.05,0,0)" xlink:href="#ci"/><use transform="matrix(0.05,0,0,0.05,10,0)" xlink:href="#cg"/><use transform="matrix(0.05,0,0,0.05,15,0)" xlink:href="#cb"/><use transform="matrix(0.05,0,0,0.05,25,0)" xlink:href="#bZ"/><use transform="matrix(0.05,0,0,0.05,35,0)" xlink:href="#ch"/></g><g id="X"><use transform="matrix(0.05,0,0,0.05,0,0)" xlink:href="#cj"/><use transform="matrix(0.05,0,0,0.05,10,0)" xlink:href="#cx"/><use transform="matrix(0.05,0,0,0.05,20,0)" xlink:href="#ct"/><use transform="matrix(0.05,0,0,0.05,30,0)" xlink:href="#ce"/><use transform="matrix(0.05,0,0,0.05,33.95,0)" xlink:href="#bW"/><use transform="matrix(0.05,0,0,0.05,37.900000000000006,0)" xlink:href="#cu"/></g><g id="Y"><use transform="matrix(0.05,0,0,0.05,0,0)" xlink:href="#bV"/><use transform="matrix(0.05,0,0,0.05,10,0)" xlink:href="#bT"/><use transform="matrix(0.05,0,0,0.05,20,0)" xlink:href="#cg"/><use transform="matrix(0.05,0,0,0.05,25,0)" xlink:href="#bT"/></g><path d="M190 0L58-211 59 0H30v-248h39L202-35l-2-213h31V0h-41" id="cD"/><g id="Z"><use transform="matrix(0.05,0,0,0.05,0,0)" xlink:href="#cD"/><use transform="matrix(0.05,0,0,0.05,12.950000000000001,0)" xlink:href="#ci"/></g><g id="aa"><use transform="matrix(0.05,0,0,0.05,0,0)" xlink:href="#cm"/><use transform="matrix(0.05,0,0,0.05,12.950000000000001,0)" xlink:href="#bT"/><use transform="matrix(0.05,0,0,0.05,22.950000000000003,0)" xlink:href="#bU"/><use transform="matrix(0.05,0,0,0.05,32.95,0)" xlink:href="#cu"/><use transform="matrix(0.05,0,0,0.05,41.95,0)" xlink:href="#bZ"/><use transform="matrix(0.05,0,0,0.05,51.95,0)" xlink:href="#ce"/></g><use transform="matrix(0.05,0,0,0.05,0,0)" xlink:href="#cl" id="ab"/><path d="M143 4C61 4 22-44 18-125c-5-107 100-154 193-111 17 8 29 25 37 43l-32 9c-13-25-37-40-76-40-61 0-88 39-88 99 0 61 29 100 91 101 35 0 62-11 79-27v-45h-74v-28h105v86C228-13 192 4 143 4" id="cE"/><g id="ac"><use transform="matrix(0.05,0,0,0.05,0,0)" xlink:href="#cE"/><use transform="matrix(0.05,0,0,0.05,14,0)" xlink:href="#ci"/></g><path d="M160-131c35 5 61 23 61 61C221 17 115-2 30 0v-248c76 3 177-17 177 60 0 33-19 50-47 57zm-97-11c50-1 110 9 110-42 0-47-63-36-110-37v79zm0 115c55-2 124 14 124-45 0-56-70-42-124-44v89" id="cF"/><g id="ad"><use transform="matrix(0.05,0,0,0.05,0,0)" xlink:href="#cF"/><use transform="matrix(0.05,0,0,0.05,12,0)" xlink:href="#bT"/><use transform="matrix(0.05,0,0,0.05,22,0)" xlink:href="#cu"/><use transform="matrix(0.05,0,0,0.05,31,0)" xlink:href="#cv"/></g><g id="ae"><use transform="matrix(0.05,0,0,0.05,0,0)" xlink:href="#cw"/><use transform="matrix(0.05,0,0,0.05,12,0)" xlink:href="#cb"/><use transform="matrix(0.05,0,0,0.05,22,0)" xlink:href="#bT"/><use transform="matrix(0.05,0,0,0.05,32,0)" xlink:href="#ch"/><use transform="matrix(0.05,0,0,0.05,37.95,0)" xlink:href="#bZ"/></g><path d="M232-93c-1 65-40 97-104 97C67 4 28-28 28-90v-158h33c8 89-33 224 67 224 102 0 64-133 71-224h33v155" id="cG"/><g id="af"><use transform="matrix(0.05,0,0,0.05,0,0)" xlink:href="#cG"/><use transform="matrix(0.05,0,0,0.05,12.950000000000001,0)" xlink:href="#cd"/><use transform="matrix(0.05,0,0,0.05,25.900000000000002,0)" xlink:href="#bS"/></g><g id="ag"><use transform="matrix(0.05,0,0,0.05,0,0)" xlink:href="#cd"/><use transform="matrix(0.05,0,0,0.05,12.950000000000001,0)" xlink:href="#bZ"/><use transform="matrix(0.05,0,0,0.05,22.950000000000003,0)" xlink:href="#cj"/><use transform="matrix(0.05,0,0,0.05,32.95,0)" xlink:href="#ci"/><use transform="matrix(0.05,0,0,0.05,42.95,0)" xlink:href="#ch"/><use transform="matrix(0.05,0,0,0.05,48.900000000000006,0)" xlink:href="#cg"/><use transform="matrix(0.05,0,0,0.05,53.900000000000006,0)" xlink:href="#ck"/></g><g id="ah"><use transform="matrix(0.05,0,0,0.05,0,0)" xlink:href="#cy"/><use transform="matrix(0.05,0,0,0.05,12,0)" xlink:href="#cq"/><use transform="matrix(0.05,0,0,0.05,26.950000000000003,0)" xlink:href="#bT"/><use transform="matrix(0.05,0,0,0.05,36.95,0)" xlink:href="#bW"/><use transform="matrix(0.05,0,0,0.05,40.900000000000006,0)" xlink:href="#ce"/><use transform="matrix(0.05,0,0,0.05,44.85000000000001,0)" xlink:href="#bZ"/><use transform="matrix(0.05,0,0,0.05,54.85,0)" xlink:href="#bV"/></g><g id="ai"><use transform="matrix(0.05,0,0,0.05,0,0)" xlink:href="#cg"/><use transform="matrix(0.05,0,0,0.05,5,0)" xlink:href="#ci"/></g><path d="M179-190L93 31C79 59 56 82 12 73V49c39 6 53-20 64-50L1-190h34L92-34l54-156h33" id="cH"/><g id="aj"><use transform="matrix(0.05,0,0,0.05,0,0)" xlink:href="#cm"/><use transform="matrix(0.05,0,0,0.05,12.950000000000001,0)" xlink:href="#bW"/><use transform="matrix(0.05,0,0,0.05,16.900000000000002,0)" xlink:href="#cg"/><use transform="matrix(0.05,0,0,0.05,21.900000000000002,0)" xlink:href="#cH"/></g><g id="ak"><use transform="matrix(0.05,0,0,0.05,0,0)" xlink:href="#bT"/><use transform="matrix(0.05,0,0,0.05,10,0)" xlink:href="#ck"/></g><g id="al"><use transform="matrix(0.05,0,0,0.05,0,0)" xlink:href="#bY"/><use transform="matrix(0.05,0,0,0.05,12,0)" xlink:href="#cs"/><use transform="matrix(0.05,0,0,0.05,24.950000000000003,0)" xlink:href="#cc"/></g><g id="am"><use transform="matrix(0.05,0,0,0.05,0,0)" xlink:href="#bY"/><use transform="matrix(0.05,0,0,0.05,12,0)" xlink:href="#ch"/><use transform="matrix(0.05,0,0,0.05,17.95,0)" xlink:href="#bW"/><use transform="matrix(0.05,0,0,0.05,21.9,0)" xlink:href="#bU"/><use transform="matrix(0.05,0,0,0.05,31.899999999999995,0)" xlink:href="#cg"/><use transform="matrix(0.05,0,0,0.05,36.9,0)" xlink:href="#bT"/><use transform="matrix(0.05,0,0,0.05,46.9,0)" xlink:href="#ct"/><use transform="matrix(0.05,0,0,0.05,56.900000000000006,0)" xlink:href="#ce"/><use transform="matrix(0.05,0,0,0.05,60.85,0)" xlink:href="#bZ"/></g><g id="an"><use transform="matrix(0.05,0,0,0.05,0,0)" xlink:href="#cc"/><use transform="matrix(0.05,0,0,0.05,10.950000000000001,0)" xlink:href="#bZ"/><use transform="matrix(0.05,0,0,0.05,20.950000000000003,0)" xlink:href="#bZ"/><use transform="matrix(0.05,0,0,0.05,30.950000000000003,0)" xlink:href="#bV"/><use transform="matrix(0.05,0,0,0.05,40.95,0)" xlink:href="#ct"/><use transform="matrix(0.05,0,0,0.05,50.95,0)" xlink:href="#bT"/><use transform="matrix(0.05,0,0,0.05,60.95,0)" xlink:href="#cu"/><use transform="matrix(0.05,0,0,0.05,69.95,0)" xlink:href="#cv"/></g><g id="ao"><use transform="matrix(0.05,0,0,0.05,0,0)" xlink:href="#cd"/><use transform="matrix(0.05,0,0,0.05,12.950000000000001,0)" xlink:href="#bZ"/><use transform="matrix(0.05,0,0,0.05,22.950000000000003,0)" xlink:href="#cj"/><use transform="matrix(0.05,0,0,0.05,32.95,0)" xlink:href="#ci"/><use transform="matrix(0.05,0,0,0.05,42.95,0)" xlink:href="#ch"/><use transform="matrix(0.05,0,0,0.05,48.900000000000006,0)" xlink:href="#cg"/></g><path d="M27 0v-27h64v-190l-56 39v-29l58-41h29v221h61V0H27" id="cI"/><path d="M101-251c82-7 93 87 43 132L82-64C71-53 59-42 53-27h129V0H18c2-99 128-94 128-182 0-28-16-43-45-43s-46 15-49 41l-32-3c6-41 34-60 81-64" id="cJ"/><g id="ap"><use transform="matrix(0.05,0,0,0.05,0,0)" xlink:href="#cI"/><use transform="matrix(0.05,0,0,0.05,10,0)" xlink:href="#cJ"/></g><g id="aq"><use transform="matrix(0.05,0,0,0.05,0,0)" xlink:href="#bU"/><use transform="matrix(0.05,0,0,0.05,10,0)" xlink:href="#ci"/><use transform="matrix(0.05,0,0,0.05,20,0)" xlink:href="#ci"/><use transform="matrix(0.05,0,0,0.05,30,0)" xlink:href="#bU"/></g><g id="ar"><use transform="matrix(0.05,0,0,0.05,0,0)" xlink:href="#bV"/><use transform="matrix(0.05,0,0,0.05,10,0)" xlink:href="#bT"/><use transform="matrix(0.05,0,0,0.05,20,0)" xlink:href="#cH"/></g><g id="as"><use transform="matrix(0.05,0,0,0.05,0,0)" xlink:href="#ci"/><use transform="matrix(0.05,0,0,0.05,10,0)" xlink:href="#cp"/></g><g id="at"><use transform="matrix(0.05,0,0,0.05,0,0)" xlink:href="#cm"/><use transform="matrix(0.05,0,0,0.05,12.950000000000001,0)" xlink:href="#ci"/><use transform="matrix(0.05,0,0,0.05,22.950000000000003,0)" xlink:href="#cx"/><use transform="matrix(0.05,0,0,0.05,32.95,0)" xlink:href="#bU"/><use transform="matrix(0.05,0,0,0.05,42.95,0)" xlink:href="#cu"/><use transform="matrix(0.05,0,0,0.05,51.95,0)" xlink:href="#bW"/><use transform="matrix(0.05,0,0,0.05,55.900000000000006,0)" xlink:href="#ce"/></g><path d="M240 0l2-218c-23 76-54 145-80 218h-23L58-218 59 0H30v-248h44l77 211c21-75 51-140 76-211h43V0h-30" id="cK"/><g id="au"><use transform="matrix(0.05,0,0,0.05,0,0)" xlink:href="#cK"/><use transform="matrix(0.05,0,0,0.05,14.950000000000001,0)" xlink:href="#bZ"/><use transform="matrix(0.05,0,0,0.05,24.950000000000003,0)" xlink:href="#bZ"/><use transform="matrix(0.05,0,0,0.05,34.95,0)" xlink:href="#cg"/><use transform="matrix(0.05,0,0,0.05,39.95,0)" xlink:href="#bW"/><use transform="matrix(0.05,0,0,0.05,43.900000000000006,0)" xlink:href="#bU"/><use transform="matrix(0.05,0,0,0.05,53.900000000000006,0)" xlink:href="#bX"/><use transform="matrix(0.05,0,0,0.05,63.900000000000006,0)" xlink:href="#cC"/></g><g id="av"><use transform="matrix(0.05,0,0,0.05,0,0)" xlink:href="#cp"/><use transform="matrix(0.05,0,0,0.05,5,0)" xlink:href="#bZ"/><use transform="matrix(0.05,0,0,0.05,15,0)" xlink:href="#bZ"/><use transform="matrix(0.05,0,0,0.05,25,0)" xlink:href="#bV"/><use transform="matrix(0.05,0,0,0.05,35,0)" xlink:href="#ct"/><use transform="matrix(0.05,0,0,0.05,45,0)" xlink:href="#bT"/><use transform="matrix(0.05,0,0,0.05,55,0)" xlink:href="#cu"/><use transform="matrix(0.05,0,0,0.05,64,0)" xlink:href="#cv"/></g><g id="aw"><use transform="matrix(0.05,0,0,0.05,0,0)" xlink:href="#ce"/><use transform="matrix(0.05,0,0,0.05,3.95,0)" xlink:href="#ci"/><use transform="matrix(0.05,0,0,0.05,13.949999999999998,0)" xlink:href="#cu"/><use transform="matrix(0.05,0,0,0.05,22.95,0)" xlink:href="#cv"/><use transform="matrix(0.05,0,0,0.05,31.950000000000003,0)" xlink:href="#bZ"/><use transform="matrix(0.05,0,0,0.05,41.95,0)" xlink:href="#bV"/></g><path d="M234-2c-28 10-62 0-77-18C117 19 8 12 13-65c3-43 29-61 60-76-25-40-17-114 47-108 35 3 59 15 59 50 0 44-40 53-71 69 14 26 32 50 51 72 14-21 24-43 30-72l26 8c-9 33-21 57-38 82 13 13 33 22 57 15v23zM97-151c25-10 52-18 56-48-1-18-13-29-33-29-42 0-39 50-23 77zM42-66c-3 51 71 58 98 28-20-24-41-51-56-80-23 10-40 24-42 52" id="cL"/><use transform="matrix(0.05,0,0,0.05,0,0)" xlink:href="#cL" id="ax"/><g id="ay"><use transform="matrix(0.05,0,0,0.05,0,0)" xlink:href="#ch"/><use transform="matrix(0.05,0,0,0.05,5.95,0)" xlink:href="#bZ"/><use transform="matrix(0.05,0,0,0.05,15.949999999999998,0)" xlink:href="#cj"/><use transform="matrix(0.05,0,0,0.05,25.950000000000003,0)" xlink:href="#ci"/><use transform="matrix(0.05,0,0,0.05,35.95,0)" xlink:href="#ch"/><use transform="matrix(0.05,0,0,0.05,41.900000000000006,0)" xlink:href="#cg"/><use transform="matrix(0.05,0,0,0.05,46.900000000000006,0)" xlink:href="#ck"/></g><g id="az"><use transform="matrix(0.05,0,0,0.05,0,0)" xlink:href="#bX"/><use transform="matrix(0.05,0,0,0.05,10,0)" xlink:href="#bZ"/><use transform="matrix(0.05,0,0,0.05,20,0)" xlink:href="#bU"/><use transform="matrix(0.05,0,0,0.05,30,0)" xlink:href="#bZ"/><use transform="matrix(0.05,0,0,0.05,40,0)" xlink:href="#ch"/><use transform="matrix(0.05,0,0,0.05,45.95,0)" xlink:href="#bT"/><use transform="matrix(0.05,0,0,0.05,55.95,0)" xlink:href="#cg"/><use transform="matrix(0.05,0,0,0.05,60.95,0)" xlink:href="#bZ"/><use transform="matrix(0.05,0,0,0.05,70.95,0)" xlink:href="#bV"/></g><g id="aA"><use transform="matrix(0.05,0,0,0.05,0,0)" xlink:href="#cw"/><use transform="matrix(0.05,0,0,0.05,12,0)" xlink:href="#cx"/><use transform="matrix(0.05,0,0,0.05,22,0)" xlink:href="#ct"/><use transform="matrix(0.05,0,0,0.05,32,0)" xlink:href="#cq"/><use transform="matrix(0.05,0,0,0.05,46.95,0)" xlink:href="#bW"/><use transform="matrix(0.05,0,0,0.05,50.900000000000006,0)" xlink:href="#ck"/><use transform="matrix(0.05,0,0,0.05,59.900000000000006,0)" xlink:href="#ck"/><use transform="matrix(0.05,0,0,0.05,68.9,0)" xlink:href="#bW"/><use transform="matrix(0.05,0,0,0.05,72.85000000000001,0)" xlink:href="#ci"/><use transform="matrix(0.05,0,0,0.05,82.85000000000001,0)" xlink:href="#bU"/></g><g id="aB"><use transform="matrix(0.05,0,0,0.05,0,0)" xlink:href="#bW"/><use transform="matrix(0.05,0,0,0.05,3.95,0)" xlink:href="#ck"/></g><g id="aC"><use transform="matrix(0.05,0,0,0.05,0,0)" xlink:href="#ch"/><use transform="matrix(0.05,0,0,0.05,5.95,0)" xlink:href="#bZ"/><use transform="matrix(0.05,0,0,0.05,15.949999999999998,0)" xlink:href="#bX"/><use transform="matrix(0.05,0,0,0.05,25.950000000000003,0)" xlink:href="#bW"/><use transform="matrix(0.05,0,0,0.05,29.899999999999995,0)" xlink:href="#ck"/><use transform="matrix(0.05,0,0,0.05,38.9,0)" xlink:href="#cg"/><use transform="matrix(0.05,0,0,0.05,43.9,0)" xlink:href="#bZ"/><use transform="matrix(0.05,0,0,0.05,53.900000000000006,0)" xlink:href="#ch"/><use transform="matrix(0.05,0,0,0.05,59.85,0)" xlink:href="#bZ"/><use transform="matrix(0.05,0,0,0.05,69.85,0)" xlink:href="#bV"/></g><g id="aD"><use transform="matrix(0.05,0,0,0.05,0,0)" xlink:href="#cg"/><use transform="matrix(0.05,0,0,0.05,5,0)" xlink:href="#ci"/></g><path d="M68-36c1 33-1 63-14 82H32c9-13 17-26 17-46H33v-36h35zM33-154v-36h35v36H33" id="cM"/><g id="aE"><use transform="matrix(0.05,0,0,0.05,0,0)" xlink:href="#cs"/><use transform="matrix(0.05,0,0,0.05,12.950000000000001,0)" xlink:href="#cF"/><use transform="matrix(0.05,0,0,0.05,24.950000000000003,0)" xlink:href="#cM"/></g><g id="aF"><use transform="matrix(0.05,0,0,0.05,0,0)" xlink:href="#cy"/><use transform="matrix(0.05,0,0,0.05,12,0)" xlink:href="#cq"/><use transform="matrix(0.05,0,0,0.05,26.950000000000003,0)" xlink:href="#bT"/><use transform="matrix(0.05,0,0,0.05,36.95,0)" xlink:href="#bW"/><use transform="matrix(0.05,0,0,0.05,40.900000000000006,0)" xlink:href="#ce"/></g><g id="aG"><use transform="matrix(0.05,0,0,0.05,0,0)" xlink:href="#cr"/><use transform="matrix(0.05,0,0,0.05,12.950000000000001,0)" xlink:href="#cl"/></g><g id="aH"><use transform="matrix(0.05,0,0,0.05,0,0)" xlink:href="#cm"/><use transform="matrix(0.05,0,0,0.05,12.950000000000001,0)" xlink:href="#ci"/><use transform="matrix(0.05,0,0,0.05,22.950000000000003,0)" xlink:href="#bU"/><use transform="matrix(0.05,0,0,0.05,32.95,0)" xlink:href="#cp"/><use transform="matrix(0.05,0,0,0.05,37.95,0)" xlink:href="#bW"/><use transform="matrix(0.05,0,0,0.05,41.900000000000006,0)" xlink:href="#ch"/><use transform="matrix(0.05,0,0,0.05,47.85000000000001,0)" xlink:href="#cq"/><use transform="matrix(0.05,0,0,0.05,62.80000000000001,0)" xlink:href="#bT"/><use transform="matrix(0.05,0,0,0.05,72.80000000000001,0)" xlink:href="#cg"/><use transform="matrix(0.05,0,0,0.05,77.80000000000001,0)" xlink:href="#bW"/><use transform="matrix(0.05,0,0,0.05,81.75000000000001,0)" xlink:href="#ci"/><use transform="matrix(0.05,0,0,0.05,91.75000000000001,0)" xlink:href="#bU"/></g><g id="aI"><use transform="matrix(0.05,0,0,0.05,0,0)" xlink:href="#cw"/><use transform="matrix(0.05,0,0,0.05,12,0)" xlink:href="#bZ"/><use transform="matrix(0.05,0,0,0.05,22,0)" xlink:href="#bU"/><use transform="matrix(0.05,0,0,0.05,32,0)" xlink:href="#cg"/></g><g id="aJ"><use transform="matrix(0.05,0,0,0.05,0,0)" xlink:href="#cp"/><use transform="matrix(0.05,0,0,0.05,5,0)" xlink:href="#ch"/><use transform="matrix(0.05,0,0,0.05,10.95,0)" xlink:href="#ci"/><use transform="matrix(0.05,0,0,0.05,20.95,0)" xlink:href="#cq"/></g><g id="aK"><use transform="matrix(0.05,0,0,0.05,0,0)" xlink:href="#cp"/><use transform="matrix(0.05,0,0,0.05,5,0)" xlink:href="#ci"/><use transform="matrix(0.05,0,0,0.05,15,0)" xlink:href="#ch"/><use transform="matrix(0.05,0,0,0.05,20.95,0)" xlink:href="#cq"/></g><g id="aL"><use transform="matrix(0.05,0,0,0.05,0,0)" xlink:href="#ck"/><use transform="matrix(0.05,0,0,0.05,9,0)" xlink:href="#cx"/><use transform="matrix(0.05,0,0,0.05,19,0)" xlink:href="#ct"/><use transform="matrix(0.05,0,0,0.05,29,0)" xlink:href="#cq"/><use transform="matrix(0.05,0,0,0.05,43.95,0)" xlink:href="#bW"/><use transform="matrix(0.05,0,0,0.05,47.900000000000006,0)" xlink:href="#ck"/><use transform="matrix(0.05,0,0,0.05,56.900000000000006,0)" xlink:href="#ck"/><use transform="matrix(0.05,0,0,0.05,65.9,0)" xlink:href="#bW"/><use transform="matrix(0.05,0,0,0.05,69.85000000000001,0)" xlink:href="#ci"/><use transform="matrix(0.05,0,0,0.05,79.85000000000001,0)" xlink:href="#bU"/></g><g id="aM"><use transform="matrix(0.05,0,0,0.05,0,0)" xlink:href="#cG"/><use transform="matrix(0.05,0,0,0.05,12.950000000000001,0)" xlink:href="#ck"/><use transform="matrix(0.05,0,0,0.05,21.950000000000003,0)" xlink:href="#bZ"/><use transform="matrix(0.05,0,0,0.05,31.950000000000003,0)" xlink:href="#ch"/></g><g id="aN"><use transform="matrix(0.05,0,0,0.05,0,0)" xlink:href="#cm"/><use transform="matrix(0.05,0,0,0.05,12.950000000000001,0)" xlink:href="#ce"/><use transform="matrix(0.05,0,0,0.05,16.900000000000002,0)" xlink:href="#bW"/><use transform="matrix(0.05,0,0,0.05,20.85,0)" xlink:href="#cu"/><use transform="matrix(0.05,0,0,0.05,29.85,0)" xlink:href="#cv"/><use transform="matrix(0.05,0,0,0.05,38.85,0)" xlink:href="#ck"/></g><g id="aO"><use transform="matrix(0.05,0,0,0.05,0,0)" xlink:href="#cG"/><use transform="matrix(0.05,0,0,0.05,12.950000000000001,0)" xlink:href="#cd"/><use transform="matrix(0.05,0,0,0.05,25.900000000000002,0)" xlink:href="#bS"/><use transform="matrix(0.05,0,0,0.05,35.900000000000006,0)" xlink:href="#cn"/></g><g id="aP"><use transform="matrix(0.05,0,0,0.05,0,0)" xlink:href="#cA"/><use transform="matrix(0.05,0,0,0.05,10.35,0)" xlink:href="#bZ"/><use transform="matrix(0.05,0,0,0.05,20.35,0)" xlink:href="#ck"/></g><g id="aQ"><use transform="matrix(0.05,0,0,0.05,0,0)" xlink:href="#bW"/><use transform="matrix(0.05,0,0,0.05,3.95,0)" xlink:href="#ck"/></g><g id="aR"><use transform="matrix(0.05,0,0,0.05,0,0)" xlink:href="#cg"/><use transform="matrix(0.05,0,0,0.05,5,0)" xlink:href="#bT"/><use transform="matrix(0.05,0,0,0.05,15,0)" xlink:href="#bX"/><use transform="matrix(0.05,0,0,0.05,25,0)" xlink:href="#bX"/><use transform="matrix(0.05,0,0,0.05,35,0)" xlink:href="#bZ"/><use transform="matrix(0.05,0,0,0.05,45,0)" xlink:href="#bV"/></g><g id="aS"><use transform="matrix(0.05,0,0,0.05,0,0)" xlink:href="#bT"/><use transform="matrix(0.05,0,0,0.05,10,0)" xlink:href="#ck"/></g><path d="M109-170H84l-4-78h32zm-65 0H19l-4-78h33" id="cN"/><g id="aT"><use transform="matrix(0.05,0,0,0.05,0,0)" xlink:href="#cN"/><use transform="matrix(0.05,0,0,0.05,6.3500000000000005,0)" xlink:href="#cf"/><use transform="matrix(0.05,0,0,0.05,15.350000000000001,0)" xlink:href="#bZ"/><use transform="matrix(0.05,0,0,0.05,25.35,0)" xlink:href="#ch"/><use transform="matrix(0.05,0,0,0.05,31.3,0)" xlink:href="#bW"/><use transform="matrix(0.05,0,0,0.05,35.25,0)" xlink:href="#cp"/><use transform="matrix(0.05,0,0,0.05,40.25,0)" xlink:href="#bW"/><use transform="matrix(0.05,0,0,0.05,44.2,0)" xlink:href="#bZ"/><use transform="matrix(0.05,0,0,0.05,54.2,0)" xlink:href="#bV"/><use transform="matrix(0.05,0,0,0.05,64.2,0)" xlink:href="#cN"/></g><g id="aU"><use transform="matrix(0.05,0,0,0.05,0,0)" xlink:href="#cy"/><use transform="matrix(0.05,0,0,0.05,12,0)" xlink:href="#cq"/><use transform="matrix(0.05,0,0,0.05,26.950000000000003,0)" xlink:href="#bT"/><use transform="matrix(0.05,0,0,0.05,36.95,0)" xlink:href="#bW"/><use transform="matrix(0.05,0,0,0.05,40.900000000000006,0)" xlink:href="#ce"/></g><g id="aV"><use transform="matrix(0.05,0,0,0.05,0,0)" xlink:href="#co"/><use transform="matrix(0.05,0,0,0.05,11,0)" xlink:href="#bZ"/><use transform="matrix(0.05,0,0,0.05,21,0)" xlink:href="#ch"/><use transform="matrix(0.05,0,0,0.05,26.950000000000003,0)" xlink:href="#bW"/><use transform="matrix(0.05,0,0,0.05,30.899999999999995,0)" xlink:href="#cp"/><use transform="matrix(0.05,0,0,0.05,35.9,0)" xlink:href="#bW"/><use transform="matrix(0.05,0,0,0.05,39.85,0)" xlink:href="#cu"/><use transform="matrix(0.05,0,0,0.05,48.85,0)" xlink:href="#bT"/><use transform="matrix(0.05,0,0,0.05,58.85,0)" xlink:href="#cg"/><use transform="matrix(0.05,0,0,0.05,63.85,0)" xlink:href="#bW"/><use transform="matrix(0.05,0,0,0.05,67.8,0)" xlink:href="#ci"/><use transform="matrix(0.05,0,0,0.05,77.8,0)" xlink:href="#bU"/></g><g id="aW"><use transform="matrix(0.05,0,0,0.05,0,0)" xlink:href="#cD"/><use transform="matrix(0.05,0,0,0.05,12.950000000000001,0)" xlink:href="#ci"/></g><g id="aX"><use transform="matrix(0.05,0,0,0.05,0,0)" xlink:href="#cN"/><use transform="matrix(0.05,0,0,0.05,6.3500000000000005,0)" xlink:href="#co"/><use transform="matrix(0.05,0,0,0.05,17.35,0)" xlink:href="#bZ"/><use transform="matrix(0.05,0,0,0.05,27.35,0)" xlink:href="#ch"/><use transform="matrix(0.05,0,0,0.05,33.300000000000004,0)" xlink:href="#bW"/><use transform="matrix(0.05,0,0,0.05,37.25000000000001,0)" xlink:href="#cp"/><use transform="matrix(0.05,0,0,0.05,42.25000000000001,0)" xlink:href="#bW"/><use transform="matrix(0.05,0,0,0.05,46.20000000000001,0)" xlink:href="#bZ"/><use transform="matrix(0.05,0,0,0.05,56.20000000000002,0)" xlink:href="#bV"/><use transform="matrix(0.05,0,0,0.05,66.20000000000002,0)" xlink:href="#cN"/></g><g id="aY"><use transform="matrix(0.05,0,0,0.05,0,0)" xlink:href="#cg"/><use transform="matrix(0.05,0,0,0.05,5,0)" xlink:href="#bT"/><use transform="matrix(0.05,0,0,0.05,15,0)" xlink:href="#bX"/></g><g id="aZ"><use transform="matrix(0.05,0,0,0.05,0,0)" xlink:href="#bU"/><use transform="matrix(0.05,0,0,0.05,10,0)" xlink:href="#ci"/><use transform="matrix(0.05,0,0,0.05,20,0)" xlink:href="#cg"/></g><g id="ba"><use transform="matrix(0.05,0,0,0.05,0,0)" xlink:href="#bT"/><use transform="matrix(0.05,0,0,0.05,10,0)" xlink:href="#bV"/><use transform="matrix(0.05,0,0,0.05,20,0)" xlink:href="#bV"/><use transform="matrix(0.05,0,0,0.05,30,0)" xlink:href="#bZ"/><use transform="matrix(0.05,0,0,0.05,40,0)" xlink:href="#bV"/></g><g id="bb"><use transform="matrix(0.05,0,0,0.05,0,0)" xlink:href="#ck"/><use transform="matrix(0.05,0,0,0.05,9,0)" xlink:href="#cx"/><use transform="matrix(0.05,0,0,0.05,19,0)" xlink:href="#ct"/><use transform="matrix(0.05,0,0,0.05,29,0)" xlink:href="#cq"/><use transform="matrix(0.05,0,0,0.05,43.95,0)" xlink:href="#bW"/><use transform="matrix(0.05,0,0,0.05,47.900000000000006,0)" xlink:href="#ck"/><use transform="matrix(0.05,0,0,0.05,56.900000000000006,0)" xlink:href="#ck"/><use transform="matrix(0.05,0,0,0.05,65.9,0)" xlink:href="#bW"/><use transform="matrix(0.05,0,0,0.05,69.85000000000001,0)" xlink:href="#ci"/><use transform="matrix(0.05,0,0,0.05,79.85000000000001,0)" xlink:href="#bU"/></g><g id="bc"><use transform="matrix(0.05,0,0,0.05,0,0)" xlink:href="#ch"/><use transform="matrix(0.05,0,0,0.05,5.95,0)" xlink:href="#bZ"/><use transform="matrix(0.05,0,0,0.05,15.949999999999998,0)" xlink:href="#cu"/><use transform="matrix(0.05,0,0,0.05,24.95,0)" xlink:href="#ci"/><use transform="matrix(0.05,0,0,0.05,34.95,0)" xlink:href="#ch"/><use transform="matrix(0.05,0,0,0.05,40.900000000000006,0)" xlink:href="#bV"/></g><path d="M195 0l-88-114-31 24V0H24v-248h52v113l112-113h60L142-143 257 0h-62" id="cO"/><path d="M24 0v-248h195v40H76v63h132v40H76v65h150V0H24" id="cP"/><path d="M146-102V0H94v-102L6-248h54l60 105 60-105h54" id="cQ"/><g id="bd"><use transform="matrix(0.05,0,0,0.05,0,0)" xlink:href="#cO"/><use transform="matrix(0.05,0,0,0.05,12.950000000000001,0)" xlink:href="#cP"/><use transform="matrix(0.05,0,0,0.05,24.950000000000003,0)" xlink:href="#cQ"/><path d="M-.9.97h38.75v1.9H-.9z"/></g><g id="be"><use transform="matrix(0.05,0,0,0.05,0,0)" xlink:href="#cD"/><use transform="matrix(0.05,0,0,0.05,12.950000000000001,0)" xlink:href="#bT"/><use transform="matrix(0.05,0,0,0.05,22.950000000000003,0)" xlink:href="#cf"/><use transform="matrix(0.05,0,0,0.05,31.950000000000003,0)" xlink:href="#bW"/><use transform="matrix(0.05,0,0,0.05,35.900000000000006,0)" xlink:href="#bX"/><use transform="matrix(0.05,0,0,0.05,45.900000000000006,0)" xlink:href="#bT"/><use transform="matrix(0.05,0,0,0.05,55.900000000000006,0)" xlink:href="#cg"/><use transform="matrix(0.05,0,0,0.05,60.900000000000006,0)" xlink:href="#bW"/><use transform="matrix(0.05,0,0,0.05,64.85000000000001,0)" xlink:href="#ci"/><use transform="matrix(0.05,0,0,0.05,74.85000000000001,0)" xlink:href="#bU"/></g><g id="bf"><use transform="matrix(0.05,0,0,0.05,0,0)" xlink:href="#cs"/><use transform="matrix(0.05,0,0,0.05,12.950000000000001,0)" xlink:href="#bZ"/><use transform="matrix(0.05,0,0,0.05,22.950000000000003,0)" xlink:href="#cu"/><use transform="matrix(0.05,0,0,0.05,31.950000000000003,0)" xlink:href="#bW"/><use transform="matrix(0.05,0,0,0.05,35.900000000000006,0)" xlink:href="#ck"/><use transform="matrix(0.05,0,0,0.05,44.900000000000006,0)" xlink:href="#bW"/><use transform="matrix(0.05,0,0,0.05,48.85000000000001,0)" xlink:href="#ci"/><use transform="matrix(0.05,0,0,0.05,58.85,0)" xlink:href="#bU"/></g><path d="M141 0L90-78 38 0H4l68-98-65-92h35l48 74 47-74h35l-64 92 68 98h-35" id="cR"/><g id="bg"><use transform="matrix(0.05,0,0,0.05,0,0)" xlink:href="#cy"/><use transform="matrix(0.05,0,0,0.05,12,0)" xlink:href="#cR"/><use transform="matrix(0.05,0,0,0.05,21,0)" xlink:href="#bW"/><use transform="matrix(0.05,0,0,0.05,24.95,0)" xlink:href="#cg"/><use transform="matrix(0.05,0,0,0.05,29.950000000000003,0)" xlink:href="#cl"/><use transform="matrix(0.05,0,0,0.05,34.95,0)" xlink:href="#cy"/><use transform="matrix(0.05,0,0,0.05,46.95,0)" xlink:href="#bU"/><use transform="matrix(0.05,0,0,0.05,56.95,0)" xlink:href="#cg"/><use transform="matrix(0.05,0,0,0.05,61.95,0)" xlink:href="#bZ"/><use transform="matrix(0.05,0,0,0.05,71.95,0)" xlink:href="#ch"/></g><g id="bh"><use transform="matrix(0.05,0,0,0.05,0,0)" xlink:href="#cw"/><use transform="matrix(0.05,0,0,0.05,12,0)" xlink:href="#bW"/><use transform="matrix(0.05,0,0,0.05,15.949999999999998,0)" xlink:href="#cg"/><use transform="matrix(0.05,0,0,0.05,20.95,0)" xlink:href="#bZ"/></g><g id="bi"><use transform="matrix(0.05,0,0,0.05,0,0)" xlink:href="#cc"/><use transform="matrix(0.05,0,0,0.05,10.950000000000001,0)" xlink:href="#ci"/><use transform="matrix(0.05,0,0,0.05,20.950000000000003,0)" xlink:href="#ch"/><use transform="matrix(0.05,0,0,0.05,26.900000000000002,0)" xlink:href="#cq"/><use transform="matrix(0.05,0,0,0.05,41.85,0)" xlink:href="#cl"/><use transform="matrix(0.05,0,0,0.05,46.85,0)" xlink:href="#cK"/><use transform="matrix(0.05,0,0,0.05,61.800000000000004,0)" xlink:href="#ci"/><use transform="matrix(0.05,0,0,0.05,71.80000000000001,0)" xlink:href="#bV"/><use transform="matrix(0.05,0,0,0.05,81.80000000000001,0)" xlink:href="#bT"/><use transform="matrix(0.05,0,0,0.05,91.80000000000001,0)" xlink:href="#ce"/></g><g id="bj"><use transform="matrix(0.05,0,0,0.05,0,0)" xlink:href="#bY"/><use transform="matrix(0.05,0,0,0.05,12,0)" xlink:href="#ch"/><use transform="matrix(0.05,0,0,0.05,17.95,0)" xlink:href="#bZ"/><use transform="matrix(0.05,0,0,0.05,27.950000000000003,0)" xlink:href="#bV"/><use transform="matrix(0.05,0,0,0.05,37.95,0)" xlink:href="#bZ"/><use transform="matrix(0.05,0,0,0.05,47.95,0)" xlink:href="#cp"/><use transform="matrix(0.05,0,0,0.05,52.95,0)" xlink:href="#bW"/><use transform="matrix(0.05,0,0,0.05,56.900000000000006,0)" xlink:href="#bU"/><use transform="matrix(0.05,0,0,0.05,66.9,0)" xlink:href="#bZ"/><use transform="matrix(0.05,0,0,0.05,76.9,0)" xlink:href="#bV"/></g><g id="bk"><use transform="matrix(0.05,0,0,0.05,0,0)" xlink:href="#bY"/><use transform="matrix(0.05,0,0,0.05,12,0)" xlink:href="#ch"/><use transform="matrix(0.05,0,0,0.05,17.95,0)" xlink:href="#ci"/><use transform="matrix(0.05,0,0,0.05,27.950000000000003,0)" xlink:href="#cu"/><use transform="matrix(0.05,0,0,0.05,36.95,0)" xlink:href="#bZ"/><use transform="matrix(0.05,0,0,0.05,46.95,0)" xlink:href="#ck"/><use transform="matrix(0.05,0,0,0.05,55.95,0)" xlink:href="#ck"/></g><g id="bl"><use transform="matrix(0.05,0,0,0.05,0,0)" xlink:href="#cF"/><use transform="matrix(0.05,0,0,0.05,12,0)" xlink:href="#bT"/><use transform="matrix(0.05,0,0,0.05,22,0)" xlink:href="#cu"/><use transform="matrix(0.05,0,0,0.05,31,0)" xlink:href="#cv"/><use transform="matrix(0.05,0,0,0.05,40,0)" xlink:href="#bZ"/><use transform="matrix(0.05,0,0,0.05,50,0)" xlink:href="#bU"/><use transform="matrix(0.05,0,0,0.05,60,0)" xlink:href="#bV"/></g><g id="bm"><use transform="matrix(0.05,0,0,0.05,0,0)" xlink:href="#ca"/><use transform="matrix(0.05,0,0,0.05,8.950000000000001,0)" xlink:href="#ci"/><use transform="matrix(0.05,0,0,0.05,18.950000000000003,0)" xlink:href="#cx"/><use transform="matrix(0.05,0,0,0.05,28.950000000000003,0)" xlink:href="#cu"/><use transform="matrix(0.05,0,0,0.05,37.95,0)" xlink:href="#cb"/><use transform="matrix(0.05,0,0,0.05,47.95,0)" xlink:href="#cj"/><use transform="matrix(0.05,0,0,0.05,57.95,0)" xlink:href="#ci"/><use transform="matrix(0.05,0,0,0.05,67.95,0)" xlink:href="#bW"/><use transform="matrix(0.05,0,0,0.05,71.9,0)" xlink:href="#bU"/><use transform="matrix(0.05,0,0,0.05,81.9,0)" xlink:href="#cg"/></g></defs></g></svg>